<?xml version="1.0" encoding="UTF-8" standalone="no"?>
<!-- Created with Inkscape (http://www.inkscape.org/) -->

<svg
   xmlns:dc="http://purl.org/dc/elements/1.1/"
   xmlns:cc="http://creativecommons.org/ns#"
   xmlns:rdf="http://www.w3.org/1999/02/22-rdf-syntax-ns#"
   xmlns:svg="http://www.w3.org/2000/svg"
   xmlns="http://www.w3.org/2000/svg"
   xmlns:sodipodi="http://sodipodi.sourceforge.net/DTD/sodipodi-0.dtd"
   xmlns:inkscape="http://www.inkscape.org/namespaces/inkscape"
   width="28"
   height="28"
   viewBox="0 0 28 28"
   version="1.1"
   id="svg8"
   inkscape:version="0.92.4 (5da689c313, 2019-01-14)"
   sodipodi:docname="etalons.svg">
  <defs
     id="defs2" />
  <sodipodi:namedview
     id="base"
     pagecolor="#ffffff"
     bordercolor="#666666"
     borderopacity="1.0"
     inkscape:pageopacity="0.0"
     inkscape:pageshadow="2"
     inkscape:zoom="22.4"
     inkscape:cx="-9.2689352"
     inkscape:cy="13.040372"
     inkscape:document-units="px"
     inkscape:current-layer="svg8"
     showgrid="false"
     units="px"
     inkscape:window-width="1920"
     inkscape:window-height="1080"
     inkscape:window-x="0"
     inkscape:window-y="0"
     inkscape:window-maximized="0"
     inkscape:object-paths="false"
     inkscape:snap-nodes="false"
     inkscape:object-nodes="false"
     inkscape:snap-others="false"
     inkscape:lockguides="false" />
  <metadata
     id="metadata5">
    <rdf:RDF>
      <cc:Work
         rdf:about="">
        <dc:format>image/svg+xml</dc:format>
        <dc:type
           rdf:resource="http://purl.org/dc/dcmitype/StillImage" />
        <dc:title></dc:title>
      </cc:Work>
    </rdf:RDF>
  </metadata>
  <path
     style="fill:none;fill-rule:evenodd;stroke:#000000;stroke-width:0.1;stroke-linecap:butt;stroke-linejoin:miter;stroke-opacity:1;stroke-miterlimit:4;stroke-dasharray:none"
     d="M 14.079001,3.8826079 C 7.7960545,4.2508502 4.1587416,7.4390457 3.4723994,12.973982 2.7860573,18.508917 6.0609155,24.275063 14.268405,23.833121 22.475894,23.391179 23.801719,17.709071 23.67545,13.352788 23.549181,8.9965049 20.361947,3.5143656 14.079001,3.8826079 Z"
     id="path836"
     inkscape:connector-curvature="0"
     sodipodi:nodetypes="zzzzz" />
  <path
     style="fill:none;fill-rule:evenodd;stroke:#000000;stroke-width:0.1;stroke-linecap:butt;stroke-linejoin:miter;stroke-opacity:1;stroke-miterlimit:4;stroke-dasharray:none"
     d="M 12.753176,3.63007 C 9.6836789,4.7298085 6.1871843,5.9029131 4.608821,13.668461 3.0304576,21.434009 4.987628,24.148793 8.2074894,24.780139 11.427351,25.411485 19.950513,24.65387 22.223356,15.562497 24.496199,6.471124 23.359778,6.2185858 19.256033,4.9558952 15.152288,3.6932046 15.822673,2.5303315 12.753176,3.63007 Z"
     id="path814"
     inkscape:connector-curvature="0"
     sodipodi:nodetypes="zzzzzz" />
  <path
     style="fill:none;fill-rule:evenodd;stroke:#000000;stroke-width:0.1;stroke-linecap:butt;stroke-linejoin:miter;stroke-opacity:1;stroke-miterlimit:4;stroke-dasharray:none"
     d="M 11.301082,4.4508189 C 11.301082,4.4508189 4.2300138,5.3347024 4.608821,13.731595 4.9876282,22.128488 4.2931483,23.580583 10.290929,25.727157 16.28871,27.873731 24.433065,13.289654 20.013647,8.1126219 15.59423,2.9355901 12.626907,3.8194736 9.0913729,8.9965054"
     id="path816"
     inkscape:connector-curvature="0"
     sodipodi:nodetypes="csssc" />
  <path
     style="fill:none;fill-rule:evenodd;stroke:#000000;stroke-width:0.1;stroke-linecap:butt;stroke-linejoin:miter;stroke-opacity:1;stroke-miterlimit:4;stroke-dasharray:none"
     d="M 10.038391,4.6402225 C 7.0934545,5.2566062 5.4295699,5.7766441 4.9876282,13.731595 4.5456864,21.686546 17.740803,31.21986 23.359777,17.077725 28.978751,2.9355895 12.983328,4.0238388 10.038391,4.6402225 Z"
     id="path818"
     inkscape:connector-curvature="0"
     sodipodi:nodetypes="zzzz" />
  <path
     style="fill:none;fill-rule:evenodd;stroke:#000000;stroke-width:0.1;stroke-linecap:butt;stroke-linejoin:miter;stroke-opacity:1;stroke-miterlimit:4;stroke-dasharray:none"
     d="M 14.836615,2.6199175 C 14.210309,10.525814 13.536047,18.347786 12.2481,25.095811"
     id="path820"
     inkscape:connector-curvature="0"
     sodipodi:nodetypes="cc" />
  <path
     style="fill:none;fill-rule:evenodd;stroke:#000000;stroke-width:0.1;stroke-linecap:butt;stroke-linejoin:miter;stroke-opacity:1;stroke-miterlimit:4;stroke-dasharray:none"
     d="M 9.4701801,10.132927 C 11.305199,7.733815 11.790528,5.3347026 12.879445,2.9355901 13.988309,10.35632 15.428998,17.832353 15.59423,25.095811"
     id="path826"
     inkscape:connector-curvature="0"
     sodipodi:nodetypes="ccc" />
  <path
     style="fill:none;fill-rule:evenodd;stroke:#000000;stroke-width:0.1;stroke-linecap:butt;stroke-linejoin:miter;stroke-opacity:1;stroke-miterlimit:4;stroke-dasharray:none"
     d="M 8.0180858,3.1249937 C 9.8730537,3.5774315 11.63962,4.1845728 14.142136,3.503801 14.252828,11.175061 13.824376,17.768032 13.447656,24.464466 11.665701,23.797415 10.031647,23.721968 8.5862966,24.401332 12.053956,24.462887 16.5045,24.852069 18.624687,24.464466"
     id="path828"
     inkscape:connector-curvature="0"
     sodipodi:nodetypes="ccccc" />
  <path
     style="fill:none;fill-rule:evenodd;stroke:#000000;stroke-width:0.1;stroke-linecap:butt;stroke-linejoin:miter;stroke-opacity:1;stroke-miterlimit:4;stroke-dasharray:none"
     d="M 10.606602,16.383245 C 10.606602,16.383245 17.046324,11.585021 16.414979,6.0923168 15.783633,0.5996124 16.793786,24.148793 16.793786,24.148793"
     id="path830"
     inkscape:connector-curvature="0"
     sodipodi:nodetypes="csc" />
  <path
     style="fill:none;fill-rule:evenodd;stroke:#000000;stroke-width:0.1;stroke-linecap:butt;stroke-linejoin:miter;stroke-opacity:1;stroke-miterlimit:4;stroke-dasharray:none"
     d="M 5.682108,10.701138 C 5.682108,10.701138 3.661803,4.7033571 10.922274,4.450819 18.182746,4.1982808 23.296643,7.6706802 20.771262,11.332483 18.24588,14.994286 7.1973368,19.098031 6.6922606,22.822968 6.1871843,26.547906 6.9447987,26.484771 6.9447987,26.484771 6.9447987,26.484771 12.753176,20.171318 17.5514,22.822968 22.349625,25.474619 23.549181,22.128488 23.549181,22.128488"
     id="path832"
     inkscape:connector-curvature="0" />
  <path
     style="fill:none;fill-rule:evenodd;stroke:#000000;stroke-width:0.1;stroke-linecap:butt;stroke-linejoin:miter;stroke-opacity:1;stroke-miterlimit:4;stroke-dasharray:none"
     d="M 6.2503188,10.638003 C 6.2503188,10.638003 6.6922606,1.2309577 15.215423,4.450819 23.738585,7.6706802 21.528876,13.79473 17.930208,17.709071 14.331539,21.623412 11.174812,30.08344 6.8185296,25.91656 2.4622468,21.749681 4.3562828,18.024744 9.0913728,18.52982 13.826463,19.034896 22.728432,25.222081 22.728432,25.222081"
     id="path834"
     inkscape:connector-curvature="0" />
  <path
     style="fill:none;fill-rule:evenodd;stroke:#000000;stroke-width:0.1;stroke-linecap:butt;stroke-linejoin:miter;stroke-opacity:1;stroke-miterlimit:4;stroke-dasharray:none"
     d="M 4.2931483,4.1351463 C 4.2931483,4.1351463 14.015866,2.3042448 17.425131,6.8499312 20.834396,11.395618 19.887378,12.342636 15.909902,16.320111 11.932427,20.297587 3.2198612,21.18147 3.2829957,23.328045 3.3461303,25.474619 3.2198612,25.790291 3.2198612,25.790291 L 22.791567,24.464466"
     id="path837"
     inkscape:connector-curvature="0" />
  <path
     style="fill:none;fill-rule:evenodd;stroke:#000000;stroke-width:0.1;stroke-linecap:butt;stroke-linejoin:miter;stroke-opacity:1;stroke-miterlimit:4;stroke-dasharray:none"
     d="M 8.8388347,2.683052 C 16.16244,3.3143978 23.044105,8.5545636 18.435284,14.426075 13.826463,20.297587 10.038391,25.032677 8.2074894,25.222081 6.3765879,25.411484 2.3991123,21.686547 4.73509,20.297587 7.0710678,18.908627 21.465741,27.179251 21.71828,25.474619 21.970818,23.769986 23.801719,17.519667 23.801719,17.519667"
     id="path839"
     inkscape:connector-curvature="0"
     sodipodi:nodetypes="cssssc" />
  <path
     style="fill:none;fill-rule:evenodd;stroke:#000000;stroke-width:0.1;stroke-linecap:butt;stroke-linejoin:miter;stroke-opacity:1;stroke-miterlimit:4;stroke-dasharray:none"
     d="M 4.0406102,3.1249937 C 10.514581,3.8221512 16.881326,4.1614894 22.854701,3.1881283 19.319073,6.5131821 15.988121,9.9064614 11.490485,12.910846 11.490485,12.910846 20.771262,14.173537 21.655145,18.719224 22.539029,23.26491 11.048543,26.800444 7.576144,21.686547 L 4.1037447,16.572649"
     id="path841"
     inkscape:connector-curvature="0"
     sodipodi:nodetypes="cccssc" />
  <path
     style="fill:none;fill-rule:evenodd;stroke:#000000;stroke-width:0.1;stroke-linecap:butt;stroke-linejoin:miter;stroke-opacity:1;stroke-miterlimit:4;stroke-dasharray:none"
     d="M 4.482552,6.7867967 C 4.482552,6.7867967 7.134202,2.683052 13.258252,2.9355901 19.382302,3.1881283 27.71606,6.9130658 21.213203,9.5647162 14.710346,12.216367 8.712566,12.468905 8.712566,12.468905 8.712566,12.468905 21.844549,11.963828 22.475894,16.951457 23.107239,21.939085 10.732871,27.558058 7.134202,22.002219"
     id="path843"
     inkscape:connector-curvature="0"
     sodipodi:nodetypes="csscsc" />
  <path
     style="fill:none;fill-rule:evenodd;stroke:#000000;stroke-width:0.1;stroke-linecap:butt;stroke-linejoin:miter;stroke-opacity:1;stroke-miterlimit:4;stroke-dasharray:none"
     d="M 6.629126,6.344855 C 6.629126,6.344855 16.85692,0.4102088 20.076782,7.1656039 23.296643,13.920999 14.268405,15.941304 13.131983,15.18369 11.995561,14.426075 15.59423,10.827407 18.119611,13.731595 20.644992,16.635784 23.044105,23.26491 16.351844,23.201775 9.659584,23.138641 4.293148,19.729376 4.293148,19.729376"
     id="path845"
     inkscape:connector-curvature="0" />
  <path
     style="fill:none;fill-rule:evenodd;stroke:#000000;stroke-width:0.1;stroke-linecap:butt;stroke-linejoin:miter;stroke-miterlimit:4;stroke-dasharray:none;stroke-opacity:1"
     d="M 4.809057,8.2497232 C 4.809057,8.2497232 2.904188,3.3775319 3.661803,3.9457427 4.419417,4.5139535 20.139916,5.6503751 20.897531,4.5139535 21.655145,3.3775319 12.945208,13.456849 12.945208,13.456849 12.945208,13.456849 18.66167,13.570427 19.35615,18.116113 20.05063,22.6618 16.478113,29.136422 10.227794,23.769986 3.977476,18.403551 4.230014,16.130708 4.230014,16.130708"
     id="path847"
     inkscape:connector-curvature="0"
     sodipodi:nodetypes="csscssc" />
  <path
     style="fill:none;fill-rule:evenodd;stroke:#000000;stroke-width:0.1;stroke-linecap:butt;stroke-linejoin:miter;stroke-opacity:1;stroke-miterlimit:4;stroke-dasharray:none"
     d="M 17.361997,25.91656 C 18.194585,18.261311 18.831909,10.522377 18.498418,2.3673793 14.417527,8.1244588 10.320625,13.838844 5.745243,18.277282 11.435082,18.602403 17.315146,18.642186 23.67545,17.961609"
     id="path851"
     inkscape:connector-curvature="0"
     sodipodi:nodetypes="cccc" />
  <path
     style="fill:none;fill-rule:evenodd;stroke:#000000;stroke-width:0.1;stroke-linecap:butt;stroke-linejoin:miter;stroke-opacity:1;stroke-miterlimit:4;stroke-dasharray:none"
     d="M 6.376588,4.577088 C 6.376588,4.577088 -0.805121,17.037194 11.301082,16.762053 16.856921,16.635784 19.697974,4.6402226 19.697974,4.6402226 L 17.930208,23.517448"
     id="path853"
     inkscape:connector-curvature="0"
     sodipodi:nodetypes="cscc" />
  <path
     style="fill:none;fill-rule:evenodd;stroke:#000000;stroke-width:0.1;stroke-linecap:butt;stroke-linejoin:miter;stroke-opacity:1;stroke-miterlimit:4;stroke-dasharray:none"
     d="M 6.755395,3.8826082 C 6.755395,3.8826082 8.586297,16.635784 6.629126,16.509515 4.671955,16.383246 20.834396,16.698918 20.834396,16.698918 19.733681,12.165339 21.381302,8.3230048 21.655145,4.1351463 20.984479,11.324545 19.716929,18.712906 19.950513,25.600888"
     id="path855"
     inkscape:connector-curvature="0"
     sodipodi:nodetypes="csccc" />
  <path
     style="fill:none;fill-rule:evenodd;stroke:#000000;stroke-width:0.1;stroke-linecap:butt;stroke-linejoin:miter;stroke-opacity:1;stroke-miterlimit:4;stroke-dasharray:none"
     d="M 8.227794,3.8194736 C 8.227794,3.8194736 8.354064,14.804882 4.81853,16.256977 1.282996,17.709071 25.084715,16.067573 23.001275,16.067573 20.917836,16.067573 17.256033,16.320111 16.877226,17.519667 16.498418,18.719224 16.119611,25.032677 16.119611,25.032677 16.589291,17.931953 17.541712,11.120874 17.256033,3.5669355"
     id="path857"
     inkscape:connector-curvature="0"
     sodipodi:nodetypes="cssscc" />
  <path
     style="fill:none;fill-rule:evenodd;stroke:#000000;stroke-width:0.1;stroke-linecap:butt;stroke-linejoin:miter;stroke-opacity:1;stroke-miterlimit:4;stroke-dasharray:none"
     d="M 23.296643,3.63007 C 23.296643,3.63007 9.343911,5.4609715 8.396893,4.8296262 7.449875,4.1982808 6.1240498,15.815035 6.1240498,15.815035 6.1240498,15.815035 11.869292,11.585021 16.920055,13.668461 21.970818,15.7519 26.011428,20.045049 17.109459,22.444161 8.2074894,24.843273 6.3134534,21.497143 6.3134534,21.497143"
     id="path859"
     inkscape:connector-curvature="0" />
  <path
     style="fill:none;fill-rule:evenodd;stroke:#000000;stroke-width:0.1;stroke-linecap:butt;stroke-linejoin:miter;stroke-opacity:1;stroke-miterlimit:4;stroke-dasharray:none"
     d="M 23.422912,4.450819 C 18.350837,4.073886 13.113935,4.850737 8.207489,3.3143974 8.178495,6.1199094 8.251048,8.9761948 7.576144,11.458752 7.576144,11.458752 21.71828,13.605326 21.528876,18.151013 21.339472,22.696699 5.745243,24.211928 4.861359,22.759834 3.977476,21.307739 3.219861,18.52982 3.219861,18.52982"
     id="path861"
     inkscape:connector-curvature="0"
     sodipodi:nodetypes="cccssc" />
  <path
     style="fill:none;fill-rule:evenodd;stroke:#000000;stroke-width:0.1;stroke-linecap:butt;stroke-linejoin:miter;stroke-opacity:1;stroke-miterlimit:4;stroke-dasharray:none"
     d="M 18.498418,3.5669355 C 16.177925,4.0898887 13.838153,4.7477989 11.679889,4.1351463 8.55259,7.5726662 7.848825,11.356405 7.007933,15.120555 7.007933,15.120555 11.490485,9.8803888 16.28871,12.658308 21.086934,15.436228 25.948293,21.244605 16.351844,23.26491 6.755395,25.285215 5.366435,23.075506 5.366435,23.075506"
     id="path863"
     inkscape:connector-curvature="0"
     sodipodi:nodetypes="cccssc" />
  <path
     style="fill:none;fill-rule:evenodd;stroke:#000000;stroke-width:0.1;stroke-linecap:butt;stroke-linejoin:miter;stroke-opacity:1;stroke-miterlimit:4;stroke-dasharray:none"
     d="M 4.924494,21.497143 C 4.924494,21.497143 6.434271,23.957865 9.343911,24.022524 15.026019,24.148794 25.253813,20.171318 18.119611,16.256977 10.985409,12.342636 6.313453,14.236672 6.313453,14.236672 6.313453,14.236672 6.86173,7.0637318 8.333758,7.1024694 17.930207,7.3550075 21.086934,4.2614154 21.086934,4.2614154 20.6932,5.7405497 19.859369,7.2930336 20.392454,8.6176982"
     id="path865"
     inkscape:connector-curvature="0"
     sodipodi:nodetypes="csscscc" />
  <path
     style="fill:none;fill-rule:evenodd;stroke:#000000;stroke-width:0.1;stroke-linecap:butt;stroke-linejoin:miter;stroke-opacity:1;stroke-miterlimit:4;stroke-dasharray:none"
     d="M 20.32932,3.7563391 C 20.32932,3.7563391 9.8489872,2.4305139 6.7553951,12.532039 3.661803,22.633565 8.9651038,28.947018 17.046324,23.391179 25.127544,17.83534 23.170374,11.01681 17.993342,11.963828 12.81631,12.910846 6.2503188,15.625631 6.2503188,15.625631"
     id="path867"
     inkscape:connector-curvature="0" />
  <path
     style="fill:none;fill-rule:evenodd;stroke:#000000;stroke-width:0.1;stroke-linecap:butt;stroke-linejoin:miter;stroke-opacity:1;stroke-miterlimit:4;stroke-dasharray:none"
     d="M 14.268405,3.0618592 C 11.174812,9.2490435 0.31567267,17.393398 4.73509,21.812816 9.1545074,26.232233 23.486047,23.95939 20.518723,18.403551 17.5514,12.847712 4.608821,18.151013 4.608821,18.151013"
     id="path869"
     inkscape:connector-curvature="0" />
  <path
     style="fill:none;fill-rule:evenodd;stroke:#000000;stroke-width:0.1;stroke-linecap:butt;stroke-linejoin:miter;stroke-opacity:1;stroke-miterlimit:4;stroke-dasharray:none"
     d="M 22.917836,8.9965054 C 23.044105,5.397837 18.24588,2.3673793 12.500638,2.4936484 6.755395,2.6199175 2.65165,6.8499312 3.282996,11.458752 3.914341,16.067573 1.704632,25.727157 11.55362,25.095811 21.402607,24.464466 23.693529,20.797393 22.28649,16.004439 20.988318,11.582331 15.351127,9.5496926 10.669736,11.206214 4.314372,13.455075 3.788072,15.309959 3.788072,15.309959"
     id="path871"
     inkscape:connector-curvature="0"
     sodipodi:nodetypes="csssssc" />
  <path
     style="fill:none;fill-rule:evenodd;stroke:#000000;stroke-width:0.1;stroke-linecap:butt;stroke-linejoin:miter;stroke-opacity:1;stroke-miterlimit:4;stroke-dasharray:none"
     d="M 21.465741,10.006658 C 21.781414,8.4282946 20.392454,2.4305139 15.783633,1.8623031 11.174812,1.2940923 5.808377,8.5545636 4.166879,15.562497 2.525381,22.57043 9.280776,25.727157 13.637059,24.590735 17.993342,23.454314 18.24588,22.065354 18.182746,17.961609 18.119611,13.857864 13.258252,10.322331 10.796005,11.395618 8.333758,12.468905 4.798225,15.373093 4.798225,15.373093"
     id="path875"
     inkscape:connector-curvature="0" />
  <path
     style="fill:none;fill-rule:evenodd;stroke:#000000;stroke-width:0.1;stroke-linecap:butt;stroke-linejoin:miter;stroke-opacity:1;stroke-miterlimit:4;stroke-dasharray:none"
     d="M 4.671955,5.0821643 C 11.124573,6.0346009 17.159979,5.1095787 23.296643,4.6402226 16.613396,10.890541 10.619423,17.14086 5.113897,23.391179"
     id="path877"
     inkscape:connector-curvature="0"
     sodipodi:nodetypes="ccc" />
  <path
     style="fill:none;fill-rule:evenodd;stroke:#000000;stroke-width:0.1;stroke-linecap:butt;stroke-linejoin:miter;stroke-opacity:1;stroke-miterlimit:4;stroke-dasharray:none"
     d="M 4.608821,2.5567829 C 10.199624,3.1887932 15.896246,3.1858869 21.655145,2.8093211 13.609579,6.5936736 12.532773,15.61172 12.81631,24.527601"
     id="path879"
     inkscape:connector-curvature="0"
     sodipodi:nodetypes="ccc" />
  <path
     style="fill:none;fill-rule:evenodd;stroke:#000000;stroke-width:0.1;stroke-linecap:butt;stroke-linejoin:miter;stroke-opacity:1;stroke-miterlimit:4;stroke-dasharray:none"
     d="M 6.755395,9.1227744 C 6.755395,9.1227744 5.997781,4.0720118 6.565991,4.450819 7.134202,4.8296262 21.907683,5.0821643 22.349625,4.3876844 22.791567,3.6932046 11.427351,15.562497 11.55362,20.360721 11.679889,25.158946 11.679889,25.158946 11.679889,25.158946"
     id="path881"
     inkscape:connector-curvature="0" />
  <path
     style="fill:none;fill-rule:evenodd;stroke:#000000;stroke-width:0.1;stroke-linecap:butt;stroke-linejoin:miter;stroke-opacity:1;stroke-miterlimit:4;stroke-dasharray:none"
     d="M 2.525382,5.9029132 C 9.431683,7.0957937 15.87629,6.4418958 22.286491,5.6503751 14.274243,11.444653 9.545558,17.142451 8.460028,24.590735 8.582127,21.126337 11.492143,17.94073 8.586297,14.173537 12.335148,15.497454 16.224617,15.696429 20.139916,15.688766"
     id="path883"
     inkscape:connector-curvature="0"
     sodipodi:nodetypes="ccccc" />
  <path
     style="fill:none;fill-rule:evenodd;stroke:#000000;stroke-width:0.1;stroke-linecap:butt;stroke-linejoin:miter;stroke-opacity:1;stroke-miterlimit:4;stroke-dasharray:none"
     d="M 13.384521,4.9558952 C 13.384521,4.9558952 1.641498,4.3876844 8.018086,10.953676 14.394674,17.519667 27.463522,22.381027 14.962884,23.643717 2.462247,24.906408 10.985409,15.625631 16.225575,11.521887 21.465741,7.418142 15.215423,5.524106 15.215423,5.524106"
     id="path885"
     inkscape:connector-curvature="0" />
  <path
     style="fill:none;fill-rule:evenodd;stroke:#000000;stroke-width:0.1;stroke-linecap:butt;stroke-linejoin:miter;stroke-opacity:1;stroke-miterlimit:4;stroke-dasharray:none"
     d="M 13.195118,13.668461 C 13.195118,13.668461 25.316948,10.574869 19.066629,6.1554514 12.81631,1.736034 11.490485,1.2940923 9.7858527,3.8194736 8.0812203,6.344855 9.9752563,10.132927 15.404826,16.762053 20.834396,23.391179 18.750956,25.790291 12.626907,24.780139 6.502857,23.769986 -1.5783633,17.14086 3.2198612,15.436228 8.0180858,13.731595 12.626907,13.857864 12.626907,13.857864"
     id="path887"
     inkscape:connector-curvature="0" />
  <path
     style="fill:none;fill-rule:evenodd;stroke:#000000;stroke-width:0.1;stroke-linecap:butt;stroke-linejoin:miter;stroke-opacity:1;stroke-miterlimit:4;stroke-dasharray:none"
     d="M 7.323606,20.739529 C 7.702413,15.120555 20.518723,12.910846 19.887378,7.1656039 19.256033,1.4203613 8.523162,0.0314016 8.712566,5.8397787 8.901969,11.648156 18.498418,12.721443 18.435284,18.719224 18.372149,24.717004 14.331539,28 10.85914,25.727157 7.38674,23.454314 7.323606,20.739529 7.323606,20.739529 Z"
     id="path889"
     inkscape:connector-curvature="0" />
  <path
     style="fill:none;fill-rule:evenodd;stroke:#000000;stroke-width:0.1;stroke-linecap:butt;stroke-linejoin:miter;stroke-opacity:1;stroke-miterlimit:4;stroke-dasharray:none"
     d="M 18.561553,11.14308 C 21.580962,9.5045843 25.23202,1.0890316 10.417198,4.8927607 -4.397625,8.6964897 32.072974,17.356823 22.412759,20.992067 12.752544,24.627311 -0.431504,22.277377 3.34613,19.539972 7.123764,16.802567 15.542144,12.781576 18.561553,11.14308 Z"
     id="path891"
     inkscape:connector-curvature="0"
     sodipodi:nodetypes="zzzzz" />
  <path
     style="fill:none;fill-rule:evenodd;stroke:#000000;stroke-width:0.1;stroke-linecap:butt;stroke-linejoin:miter;stroke-opacity:1;stroke-miterlimit:4;stroke-dasharray:none"
     d="M 19.824244,8.3020255 C 19.824244,8.3020255 15.909902,0.5996124 10.417198,6.5342586 4.924494,12.468905 5.871512,17.330264 11.111678,16.067573 16.351844,14.804882 19.571705,9.7541198 19.571705,9.7541198 19.10378,15.283976 18.70714,20.885116 17.425131,25.600888"
     id="path893"
     inkscape:connector-curvature="0"
     sodipodi:nodetypes="csscc" />
  <path
     style="fill:none;fill-rule:evenodd;stroke:#000000;stroke-width:0.1;stroke-linecap:butt;stroke-linejoin:miter;stroke-opacity:1;stroke-miterlimit:4;stroke-dasharray:none"
     d="M 21.086934,9.8803888 C 21.086934,9.8803888 20.708127,14.678613 14.520943,15.057421 8.3337584,15.436228 3.1567267,14.173537 4.73509,10.385465 6.3134534,6.5973931 9.0282383,1.2940923 14.710346,3.5669355 20.392454,5.8397787 25.001275,8.1757564 22.791567,14.236672 20.581858,20.297587 14.394674,25.285215 10.796005,25.600888 7.1973368,25.91656 5.6189735,25.474619 5.6189735,25.474619"
     id="path895"
     inkscape:connector-curvature="0" />
  <path
     style="fill:none;fill-rule:evenodd;stroke:#000000;stroke-width:0.1;stroke-linecap:butt;stroke-linejoin:miter;stroke-opacity:1;stroke-miterlimit:4;stroke-dasharray:none"
     d="M 19.445436,7.8600838 C 19.445436,7.8600838 18.877226,1.9254376 12.81631,4.3876844 6.755395,6.8499312 7.134202,8.7439672 8.270624,11.01681 9.407046,13.289654 15.341692,15.373093 17.109459,11.648156 18.877226,7.9232183 19.192898,8.7439673 19.192898,8.7439673 19.192898,8.7439673 21.781414,18.971762 16.036172,21.434009 10.290929,23.896255 7.007933,24.527601 7.007933,24.527601"
     id="path897"
     inkscape:connector-curvature="0"
     sodipodi:nodetypes="cssscsc" />
  <path
     style="fill:none;fill-rule:evenodd;stroke:#000000;stroke-width:0.1;stroke-linecap:butt;stroke-linejoin:miter;stroke-opacity:1;stroke-miterlimit:4;stroke-dasharray:none"
     d="M 21.0238,14.678613 C 21.0238,14.678613 9.722718,16.888322 7.38674,14.047268 5.050763,11.206214 2.65165,8.1757564 6.81853,6.0923168 10.985409,4.0088772 16.793786,1.2940923 19.445436,5.7766442 22.097087,10.259196 21.402607,22.822968 11.932427,23.833121 2.462247,24.843273 4.798225,20.992067 4.798225,20.992067"
     id="path899"
     inkscape:connector-curvature="0" />
</svg>
