<?xml version="1.0" encoding="UTF-8"?>
<svg width="665px" height="58px" viewBox="0 0 665 58" version="1.1" xmlns="http://www.w3.org/2000/svg" xmlns:xlink="http://www.w3.org/1999/xlink">
    <!-- Generator: Sketch 63.1 (92452) - https://sketch.com -->
    <title>Cen'estpasundomophone. 2</title>
    <desc>Created with Sketch.</desc>
    <g id="Page-1" stroke="none" stroke-width="1" fill="none" fill-rule="evenodd">
        <g id="Cen'estpasundomophone.-2" transform="translate(0.000000, 0.787838)" fill="#000000" fill-rule="nonzero">
            <path d="M13.95,40.2121622 C17.6833333,40.2121622 22.1666667,38.0121622 27.4,33.6121622 C27.5333333,33.3788288 27.6,33.1288288 27.6,32.8621622 C27.6,32.6288288 27.55,32.3954955 27.45,32.1621622 C27.1166667,31.7621622 26.8,31.5954955 26.5,31.6621622 C26.2,31.7288288 25.9666667,31.7621622 25.8,31.7621622 C26,31.7621622 25.2333333,32.3954955 23.5,33.6621622 C22.5333333,34.3954955 21.7833333,34.9454955 21.25,35.3121622 C20.1166667,36.1454955 19.3833333,36.5621622 19.05,36.5621622 L19.05,36.5621622 L17,37.3121622 C15.4,37.6121622 14.25,37.7621622 13.55,37.7621622 C12.0833333,37.6288288 10.6666667,37.2788288 9.3,36.7121622 C5.9,34.8454955 3.83333333,32.2288288 3.1,28.8621622 C2.46666667,27.1621622 2.15,25.3121622 2.15,23.3121622 C2.15,19.0788288 3.41666667,14.9121622 5.95,10.8121622 C6.11666667,10.7454955 6.18333333,10.6288288 6.15,10.4621622 C7.05,8.9954955 8.96666667,7.06216216 11.9,4.66216216 C12.6,4.36216216 13.0166667,4.1454955 13.15,4.01216216 C14.7166667,2.97882883 16.4833333,2.46216216 18.45,2.46216216 C20.2166667,2.46216216 21.75,2.91216216 23.05,3.81216216 C23.85,4.2454955 24.55,5.02882883 25.15,6.16216216 C25.8833333,7.56216216 26.4,8.41216216 26.7,8.71216216 C26.9,8.77882883 27.0666667,8.81216216 27.2,8.81216216 C27.9666667,8.81216216 28.35,8.42882883 28.35,7.66216216 C28.35,7.46216216 28.25,7.0454955 28.05,6.41216216 C26.3833333,3.41216216 24.05,1.37882883 21.05,0.312162162 L21.05,0.312162162 L21,0.512162162 C19.9666667,0.212162162 19.2166667,0.0454954955 18.75,0.0121621622 C17.3166667,0.212162162 16,0.495495495 14.8,0.862162162 C13.4333333,1.12882883 12.15,1.6954955 10.95,2.56216216 L10.95,2.56216216 L7.5,5.06216216 C6,6.82882883 4.9,8.16216216 4.2,9.06216216 C2.53333333,12.2288288 1.43333333,14.8454955 0.9,16.9121622 C0.733333333,17.5788288 0.6,17.9621622 0.5,18.0621622 C0.166666667,19.6621622 0,21.3121622 0,23.0121622 C0,26.5788288 0.733333333,29.7788288 2.2,32.6121622 C3.83333333,35.7788288 6.16666667,37.9954955 9.2,39.2621622 C10.7333333,39.8954955 12.3166667,40.2121622 13.95,40.2121622 Z M35.55,40.2121622 L37.55,40.1621622 C38.85,40.1288288 40.7333333,39.2954955 43.2,37.6621622 C45.3,36.2621622 47.0166667,34.7788288 48.35,33.2121622 C48.4166667,32.8788288 48.2666667,32.4788288 47.9,32.0121622 C47.6333333,31.8454955 47.2,31.7621622 46.6,31.7621622 C46.4,31.9954955 45.8833333,32.4288288 45.05,33.0621622 C43.5166667,34.6288288 41.4333333,36.0121622 38.8,37.2121622 C38.1,37.6788288 37.15,37.9121622 35.95,37.9121622 C34.85,37.9121622 33.45,37.5788288 31.75,36.9121622 C29.9833333,35.4788288 29.05,34.4454955 28.95,33.8121622 C30.15,33.1121622 31.0833333,32.6454955 31.75,32.4121622 L31.75,32.4121622 L37.7,29.1621622 C40.0666667,27.8621622 41.9166667,26.5121622 43.25,25.1121622 C44.3166667,23.7121622 44.85,22.3121622 44.85,20.9121622 C44.85,18.3454955 42.9166667,17.0621622 39.05,17.0621622 C35.8166667,17.6288288 33.075,19.0704955 30.825,21.3871622 C28.575,23.7038288 27.1,26.5121622 26.4,29.8121622 C26.3333333,30.2788288 26.2833333,30.7454955 26.25,31.2121622 C26.2166667,31.3121622 26.2,31.4288288 26.2,31.5621622 C26.2,31.6954955 26.2166667,31.8454955 26.25,32.0121622 C25.6833333,32.3121622 25.2166667,32.5621622 24.85,32.7621622 C24.7833333,33.2621622 24.85,33.7121622 25.05,34.1121622 C25.2166667,34.3121622 25.4666667,34.5288288 25.8,34.7621622 C26.1333333,34.6954955 26.4333333,34.5788288 26.7,34.4121622 C28.4,37.7454955 31.35,39.6621622 35.55,40.1621622 L35.55,40.1621622 L35.55,40.2121622 Z M28.75,31.0121622 L28.7,31.0121622 C28.6333333,30.9454955 28.6,30.8788288 28.6,30.8121622 C28.6,30.7788288 28.6166667,30.7454955 28.65,30.7121622 C29.0166667,29.0788288 29.3666667,27.8954955 29.7,27.1621622 C31.4333333,23.1954955 34.6333333,20.5788288 39.3,19.3121622 C41.1333333,19.4121622 42.2166667,19.8288288 42.55,20.5621622 C42.55,21.9621622 41.85,23.2788288 40.45,24.5121622 C39.5833333,25.2788288 38.2666667,26.1454955 36.5,27.1121622 C35.9333333,27.4121622 35.55,27.6121622 35.35,27.7121622 L35.35,27.7121622 L32.3,29.4121622 C31.5666667,29.8121622 30.3833333,30.3454955 28.75,31.0121622 L28.75,31.0121622 Z M91.45,40.3621622 C93.0166667,40.3621622 94.95,39.2621622 97.25,37.0621622 L97.25,37.0621622 L99.3,35.1121622 C100.233333,34.2121622 100.7,33.4454955 100.7,32.8121622 C100.5,32.2121622 100.15,31.9121622 99.65,31.9121622 C99.45,31.9121622 99.2333333,31.9454955 99,32.0121622 C97.5666667,33.4788288 96.55,34.5121622 95.95,35.1121622 L95.75,35.3121622 C94.15,36.9121622 92.9,37.7121622 92,37.7121622 C91.8,37.7121622 91.5833333,37.6621622 91.35,37.5621622 C91.2833333,37.2621622 91.25,36.9454955 91.25,36.6121622 C91.25,36.0454955 91.3833333,35.2954955 91.65,34.3621622 C92.0166667,33.1288288 92.2166667,32.3954955 92.25,32.1621622 C92.4166667,31.3288288 92.95,29.5454955 93.85,26.8121622 C94.55,24.6788288 94.9,23.0121622 94.9,21.8121622 C94.9,20.7121622 94.7,19.7121622 94.3,18.8121622 C94.1333333,18.4454955 93.7666667,18.0704955 93.2,17.6871622 C92.6333333,17.3038288 92.1333333,17.0621622 91.7,16.9621622 C90.1333333,16.7621622 88.525,17.0121622 86.875,17.7121622 C85.225,18.4121622 83.8833333,19.3788288 82.85,20.6121622 C82.7166667,20.8121622 82.4666667,21.0454955 82.1,21.3121622 L82.1,21.3121622 L82.1,21.1121622 C82.1333333,20.8121622 82.325,20.3204955 82.675,19.6371622 C83.025,18.9538288 83.2,18.4621622 83.2,18.1621622 C83.2,17.7954955 83.0666667,17.4454955 82.8,17.1121622 C82.5666667,16.9121622 82.2833333,16.8288288 81.95,16.8621622 C81.6833333,16.9621622 81.4,17.0454955 81.1,17.1121622 C78.9333333,20.1454955 76.0333333,23.6621622 72.4,27.6621622 C69.7333333,30.5954955 68.2166667,32.2454955 67.85,32.6121622 L67.85,32.6121622 L67.9,33.4621622 C68.1333333,34.1621622 68.6333333,34.4621622 69.4,34.3621622 C70.2333333,33.5954955 71.1166667,32.6954955 72.05,31.6621622 C74.45,29.0288288 76.4666667,26.7454955 78.1,24.8121622 L78.1,24.8121622 L78.15,24.8621622 C75.15,32.7621622 73.3833333,37.3454955 72.85,38.6121622 L72.85,38.6121622 L72.85,39.6121622 C73.3833333,40.0121622 73.75,40.2121622 73.95,40.2121622 C74.3166667,40.2121622 74.65,39.9788288 74.95,39.5121622 C77.15,33.7121622 78.5,30.1454955 79,28.8121622 L79,28.8121622 L79.7,27.7121622 C81.5333333,24.8121622 83.8666667,22.2788288 86.7,20.1121622 C86.9333333,19.9454955 87.425,19.7454955 88.175,19.5121622 C88.925,19.2788288 89.45,19.1621622 89.75,19.1621622 C90.65,19.1621622 91.2666667,19.1954955 91.6,19.2621622 C92.3,19.7954955 92.65,20.6288288 92.65,21.7621622 C92.65,22.3288288 92.5833333,22.8621622 92.45,23.3621622 C90.2833333,31.3954955 89.0833333,36.1954955 88.85,37.7621622 C88.9833333,38.6288288 89.5166667,39.4621622 90.45,40.2621622 C90.7833333,40.3288288 91.1166667,40.3621622 91.45,40.3621622 Z M103.85,20.4121622 C104.483333,20.2454955 104.883333,20.1288288 105.05,20.0621622 C105.616667,19.6954955 106,19.3788288 106.2,19.1121622 C107.366667,17.5788288 107.95,16.2454955 107.95,15.1121622 C107.85,14.2121622 107.366667,13.5788288 106.5,13.2121622 C105.9,13.1121622 105.483333,13.1121622 105.25,13.2121622 C104.383333,13.5788288 103.9,14.2121622 103.8,15.1121622 C103.8,15.9121622 104.1,16.5121622 104.7,16.9121622 C105.233333,17.1788288 105.583333,17.3288288 105.75,17.3621622 C105.55,17.9954955 105.433333,18.3621622 105.4,18.4621622 C105.033333,19.2621622 104.533333,19.7788288 103.9,20.0121622 C103.833333,20.2121622 103.816667,20.3454955 103.85,20.4121622 Z M120.95,40.2121622 L122.95,40.1621622 C124.25,40.1288288 126.133333,39.2954955 128.6,37.6621622 C130.7,36.2621622 132.416667,34.7788288 133.75,33.2121622 C133.816667,32.8788288 133.666667,32.4788288 133.3,32.0121622 C133.033333,31.8454955 132.6,31.7621622 132,31.7621622 C131.8,31.9954955 131.283333,32.4288288 130.45,33.0621622 C128.916667,34.6288288 126.833333,36.0121622 124.2,37.2121622 C123.5,37.6788288 122.55,37.9121622 121.35,37.9121622 C120.25,37.9121622 118.85,37.5788288 117.15,36.9121622 C115.383333,35.4788288 114.45,34.4454955 114.35,33.8121622 C115.55,33.1121622 116.483333,32.6454955 117.15,32.4121622 L117.15,32.4121622 L123.1,29.1621622 C125.466667,27.8621622 127.316667,26.5121622 128.65,25.1121622 C129.716667,23.7121622 130.25,22.3121622 130.25,20.9121622 C130.25,18.3454955 128.316667,17.0621622 124.45,17.0621622 C121.216667,17.6288288 118.475,19.0704955 116.225,21.3871622 C113.975,23.7038288 112.5,26.5121622 111.8,29.8121622 C111.733333,30.2788288 111.683333,30.7454955 111.65,31.2121622 C111.616667,31.3121622 111.6,31.4288288 111.6,31.5621622 C111.6,31.6954955 111.616667,31.8454955 111.65,32.0121622 C111.083333,32.3121622 110.616667,32.5621622 110.25,32.7621622 C110.183333,33.2621622 110.25,33.7121622 110.45,34.1121622 C110.616667,34.3121622 110.866667,34.5288288 111.2,34.7621622 C111.533333,34.6954955 111.833333,34.5788288 112.1,34.4121622 C113.8,37.7454955 116.75,39.6621622 120.95,40.1621622 L120.95,40.1621622 L120.95,40.2121622 Z M114.15,31.0121622 L114.1,31.0121622 C114.033333,30.9454955 114,30.8788288 114,30.8121622 C114,30.7788288 114.016667,30.7454955 114.05,30.7121622 C114.416667,29.0788288 114.766667,27.8954955 115.1,27.1621622 C116.833333,23.1954955 120.033333,20.5788288 124.7,19.3121622 C126.533333,19.4121622 127.616667,19.8288288 127.95,20.5621622 C127.95,21.9621622 127.25,23.2788288 125.85,24.5121622 C124.983333,25.2788288 123.666667,26.1454955 121.9,27.1121622 C121.333333,27.4121622 120.95,27.6121622 120.75,27.7121622 L120.75,27.7121622 L117.7,29.4121622 C116.966667,29.8121622 115.783333,30.3454955 114.15,31.0121622 L114.15,31.0121622 Z M133.85,35.5121622 C135.35,37.4788288 136.483333,38.6121622 137.25,38.9121622 C138.116667,39.4121622 138.816667,39.7288288 139.35,39.8621622 L139.35,39.8621622 L141.95,40.2121622 C145.616667,40.0788288 149.666667,38.4788288 154.1,35.4121622 L154.1,35.4121622 L155.55,34.4121622 C156.383333,33.8454955 156.75,33.1454955 156.65,32.3121622 C156.45,31.9454955 156.183333,31.7288288 155.85,31.6621622 C155.55,31.6954955 155.333333,31.7121622 155.2,31.7121622 C154.866667,31.8454955 154,32.4954955 152.6,33.6621622 C152.5,33.6954955 151.883333,34.0788288 150.75,34.8121622 C150.016667,35.2788288 149.366667,35.5454955 148.8,35.6121622 C149.466667,34.3454955 149.8,32.9954955 149.8,31.5621622 C149.8,30.2954955 149.441667,28.4538288 148.725,26.0371622 C148.008333,23.6204955 147.633333,21.7954955 147.6,20.5621622 C147.6,19.8954955 147.933333,19.3954955 148.6,19.0621622 L148.6,19.0621622 L150.5,18.1121622 C150.566667,17.9788288 150.6,17.8454955 150.6,17.7121622 C150.6,17.4121622 150.466667,17.0954955 150.2,16.7621622 C149.633333,16.3954955 149.25,16.2454955 149.05,16.3121622 C147.25,16.8788288 145.283333,18.0454955 143.15,19.8121622 C142.383333,20.4454955 140.65,21.9954955 137.95,24.4621622 L137.95,24.4621622 L134.35,28.6621622 C132.15,31.2288288 131,32.5621622 130.9,32.6621622 C131,33.2288288 131.1,33.5954955 131.2,33.7621622 C131.4,34.0288288 131.75,34.1621622 132.25,34.1621622 C132.55,34.1954955 132.783333,34.1121622 132.95,33.9121622 C133.583333,33.1121622 134.266667,32.3121622 135,31.5121622 C137.6,28.5454955 139.283333,26.6121622 140.05,25.7121622 C141.783333,23.7454955 143.516667,22.2954955 145.25,21.3621622 C145.316667,21.4954955 145.35,21.7121622 145.35,22.0121622 C145.383333,23.0454955 145.75,24.5704955 146.45,26.5871622 C147.15,28.6038288 147.5,30.1621622 147.5,31.2621622 C147.5,34.1288288 146.533333,36.0788288 144.6,37.1121622 C143.933333,37.4788288 142.933333,37.6621622 141.6,37.6621622 C140,37.6621622 138.616667,37.1621622 137.45,36.1621622 C136.15,34.6288288 135.35,33.8621622 135.05,33.8621622 C134.75,33.8621622 134.458333,33.9871622 134.175,34.2371622 C133.891667,34.4871622 133.75,34.7621622 133.75,35.0621622 C133.75,35.0954955 133.733333,35.0454955 133.7,34.9121622 L133.85,35.5121622 Z M162.85,40.2121622 C164.416667,40.2121622 166.2,39.7121622 168.2,38.7121622 C171.366667,36.3454955 173.383333,34.5788288 174.25,33.4121622 C174.283333,33.2454955 174.3,33.0788288 174.3,32.9121622 C174.3,32.1121622 173.9,31.7121622 173.1,31.7121622 C172.766667,31.7121622 172.45,31.8621622 172.15,32.1621622 C169.25,35.0288288 167.083333,36.7121622 165.65,37.2121622 C164.316667,37.5454955 163.433333,37.7121622 163,37.7121622 C162.5,37.7121622 162.033333,37.5621622 161.6,37.2621622 C160.9,36.4621622 160.55,35.4454955 160.55,34.2121622 C160.55,33.5454955 160.633333,32.9454955 160.8,32.4121622 C161.233333,31.0454955 162.066667,29.2121622 163.3,26.9121622 L166.25,21.4621622 C166.416667,20.9288288 166.733333,20.3288288 167.2,19.6621622 L173,19.6121622 C173.066667,19.5788288 173.283333,19.4954955 173.65,19.3621622 C173.916667,19.2954955 174.116667,19.1621622 174.25,18.9621622 C174.35,18.5288288 174.283333,18.0121622 174.05,17.4121622 C173.35,17.0121622 172.5,16.8288288 171.5,16.8621622 C170.433333,16.8954955 169.55,16.8954955 168.85,16.8621622 L169,16.7621622 C168.9,16.8288288 168.8,16.7954955 168.7,16.6621622 C168.966667,15.7621622 169.516667,14.5954955 170.35,13.1621622 C171.25,11.5621622 171.833333,10.3954955 172.1,9.66216216 L172.1,8.86216216 C171.933333,8.36216216 171.55,8.11216216 170.95,8.11216216 C170.683333,8.11216216 170.45,8.1954955 170.25,8.36216216 L167.35,14.0121622 C167.316667,14.1788288 167.083333,14.7121622 166.65,15.6121622 C166.316667,16.3121622 166.033333,16.7621622 165.8,16.9621622 L159.45,16.9621622 C159.05,16.9621622 158.766667,17.2288288 158.6,17.7621622 C158.6,18.4621622 158.716667,18.8954955 158.95,19.0621622 C159.016667,19.3621622 159.916667,19.5121622 161.65,19.5121622 C163.216667,19.5121622 164.2,19.5288288 164.6,19.5621622 C164.633333,19.5954955 164.616667,19.6788288 164.55,19.8121622 C164.416667,20.1454955 164.316667,20.3454955 164.25,20.4121622 L163.05,22.6621622 L163,22.6621622 C162.133333,24.7288288 160.383333,26.9621622 157.75,29.3621622 L154.5,32.3121622 C154.266667,32.4788288 154.15,32.6788288 154.15,32.9121622 C154.15,33.7454955 154.75,34.1621622 155.95,34.1621622 C157.783333,32.4288288 158.75,31.4954955 158.85,31.3621622 L158.85,31.4121622 C158.483333,32.3788288 158.3,33.3621622 158.3,34.3621622 C158.3,36.4621622 159.033333,38.1788288 160.5,39.5121622 C161.2,39.9788288 161.983333,40.2121622 162.85,40.2121622 Z M194.71875,57.0138983 L194.85,57.0121622 C195.416667,56.8121622 195.766667,56.5621622 195.9,56.2621622 C196.966667,52.7954955 198.216667,49.2788288 199.65,45.7121622 L199.65,45.7121622 L203.85,35.3621622 L204.25,34.8621622 C205.283333,36.3954955 205.866667,37.2788288 206,37.5121622 C207.033333,39.2121622 208.983333,40.0621622 211.85,40.0621622 C212.85,40.0621622 214.083333,39.9121622 215.55,39.6121622 L215.55,39.6121622 L217.75,39.1621622 C220.983333,38.4954955 224.15,36.6121622 227.25,33.5121622 C227.383333,33.2121622 227.45,32.9954955 227.45,32.8621622 C227.483333,32.6954955 227.483333,32.5621622 227.45,32.4621622 C227.45,32.3621622 227.383333,32.2621622 227.25,32.1621622 C227.05,31.8954955 226.75,31.7621622 226.35,31.7621622 C226.216667,31.7621622 226.066667,31.7788288 225.9,31.8121622 C225.466667,32.2454955 224.95,32.6788288 224.35,33.1121622 C223.583333,33.9121622 222.366667,34.7288288 220.7,35.5621622 C220.166667,35.8954955 219.633333,36.0788288 219.1,36.1121622 L219.1,36.1121622 L219,35.7621622 C221.5,32.1621622 222.75,28.6288288 222.75,25.1621622 C222.75,22.9621622 222.4,21.4288288 221.7,20.5621622 C221.4,19.1954955 220.633333,18.2454955 219.4,17.7121622 C218.333333,17.0788288 217.216667,16.7621622 216.05,16.7621622 C214.616667,16.7621622 212.933333,17.2454955 211,18.2121622 C210.8,18.0788288 210.7,17.8954955 210.7,17.6621622 C210.7,17.5954955 210.716667,17.4954955 210.75,17.3621622 L210.75,17.3621622 L210.75,17.0621622 C210.75,16.8288288 210.65,16.6454955 210.45,16.5121622 C210.216667,16.2454955 209.933333,16.1121622 209.6,16.1121622 C209.2,16.1121622 208.833333,16.2621622 208.5,16.5621622 C205.966667,20.0954955 204.266667,22.3954955 203.4,23.4621622 C203.1,23.8288288 201.216667,25.6621622 197.75,28.9621622 C197.016667,29.6621622 196.516667,30.1621622 196.25,30.4621622 C196.35,30.4288288 196.716667,30.1454955 197.35,29.6121622 C195.916667,30.8454955 194.933333,31.6954955 194.4,32.1621622 C194.233333,32.4621622 194.15,32.7454955 194.15,33.0121622 C194.15,33.3454955 194.3,33.6288288 194.6,33.8621622 C194.866667,33.9621622 195.116667,34.0121622 195.35,34.0121622 C195.616667,34.0121622 195.866667,33.9621622 196.1,33.8621622 C199.033333,31.2621622 200.666667,29.7621622 201,29.3621622 C202.8,27.6621622 204.066667,26.4621622 204.8,25.7621622 L204.8,25.7621622 L204.95,25.8621622 C199.183333,41.2288288 195.75,50.1454955 194.65,52.6121622 C194.25,53.5121622 193.983333,54.0788288 193.85,54.3121622 C193.55,55.0121622 193.45,55.6288288 193.55,56.1621622 C193.883333,56.7621622 194.316667,57.0454955 194.85,57.0121622 L194.71875,57.0138983 Z M212.2,37.4621622 C211.733333,37.5954955 210.8,37.4288288 209.4,36.9621622 C207.6,35.4621622 206.716667,33.8788288 206.75,32.2121622 C206.65,32.0121622 206.6,31.8121622 206.6,31.6121622 C206.6,31.4788288 206.641667,31.2454955 206.725,30.9121622 C206.808333,30.5788288 206.833333,30.3121622 206.8,30.1121622 C207,28.1454955 207.658333,26.1871622 208.775,24.2371622 C209.891667,22.2871622 211.25,20.8121622 212.85,19.8121622 C213.816667,19.4454955 214.75,19.2621622 215.65,19.2621622 C217.183333,19.2621622 218.366667,19.7788288 219.2,20.8121622 L219.2,20.8121622 L219.355325,21.1234048 C219.951775,22.3825764 220.25,23.8121622 220.25,25.4121622 C220.25,27.9454955 219.633333,30.2621622 218.4,32.3621622 C216.833333,35.0288288 214.766667,36.7288288 212.2,37.4621622 Z M250.6,40.2621622 C250.933333,40.2621622 251.283333,40.1954955 251.65,40.0621622 C252.583333,39.5621622 253.966667,38.4788288 255.8,36.8121622 C257.333333,35.4121622 258.483333,34.2621622 259.25,33.3621622 C259.283333,33.2288288 259.3,33.1121622 259.3,33.0121622 C259.3,32.1788288 258.933333,31.7621622 258.2,31.7621622 C258.133333,31.7621622 257.7,31.9788288 256.9,32.4121622 L256.9,32.4121622 L256.95,32.4121622 C255.116667,34.1454955 253.6,35.6288288 252.4,36.8621622 C251.733333,37.3954955 251.033333,37.6621622 250.3,37.6621622 C249.666667,37.6621622 249.233333,37.2954955 249,36.5621622 C249,36.4954955 248.933333,36.1121622 248.8,35.4121622 C248.966667,34.6788288 249.183333,34.1621622 249.45,33.8621622 C250.283333,31.5954955 250.85,30.0954955 251.15,29.3621622 C252.85,24.6621622 253.983333,21.5288288 254.55,19.9621622 C254.883333,19.0288288 255.083333,18.3954955 255.15,18.0621622 C255.15,17.3288288 254.65,16.9621622 253.65,16.9621622 C252.983333,17.2621622 252.633333,17.7788288 252.6,18.5121622 L252.6,18.5121622 L251.05,21.5621622 C250.616667,21.2954955 250.433333,20.9954955 250.5,20.6621622 L250.5,20.6621622 L250.4,20.7621622 C249.366667,19.1954955 248.416667,18.2954955 247.55,18.0621622 C246.183333,17.3288288 244.733333,16.9621622 243.2,16.9621622 C238.9,16.9621622 235.216667,19.1954955 232.15,23.6621622 C231.55,24.8954955 230.733333,26.0788288 229.7,27.2121622 L229.7,27.2121622 L224.9,32.5121622 C224.8,32.6788288 224.75,32.8454955 224.75,33.0121622 C224.75,33.7788288 225.3,34.1621622 226.4,34.1621622 L226.4,34.1621622 L227.3,33.3121622 C228.766667,31.8788288 229.633333,31.0954955 229.9,30.9621622 L229.9,30.9621622 L230.45,33.0121622 C230.683333,33.8788288 230.916667,34.5454955 231.15,35.0121622 C232.983333,38.6788288 235.483333,40.4121622 238.65,40.2121622 C241.283333,40.0454955 243.9,38.9454955 246.5,36.9121622 C246.933333,37.8121622 247.233333,38.4954955 247.4,38.9621622 C248.466667,39.8288288 249.533333,40.2621622 250.6,40.2621622 Z M239.1,37.6121622 C238.3,37.6121622 237.833333,37.5621622 237.7,37.4621622 C237.066667,37.2954955 236.65,37.1121622 236.45,36.9121622 L236.45,36.9121622 L236.4,36.9621622 L236.1,36.7121622 L236.05,36.7621622 C235.483333,36.4288288 234.933333,35.9454955 234.4,35.3121622 L234.4,35.3121622 L233.45,33.9121622 L233.45,33.8621622 C233.316667,33.5621622 233.2,33.2954955 233.1,33.0621622 L233.1,33.0621622 L232.7,31.7621622 C232.566667,31.3288288 232.533333,31.0121622 232.6,30.8121622 C232.566667,30.7454955 232.55,30.7454955 232.55,30.8121622 C232.55,29.5454955 232.8,28.2954955 233.3,27.0621622 L233.3,27.0621622 L233.5,26.5621622 C233.633333,26.2621622 233.683333,26.0954955 233.65,26.0621622 C234.816667,23.9288288 236.333333,22.2621622 238.2,21.0621622 C240.2,19.7621622 242.366667,19.1788288 244.7,19.3121622 C246.6,19.8788288 247.833333,20.8121622 248.4,22.1121622 L248.4,22.1121622 L248.517188,22.5129434 C248.772396,23.4499226 248.9,24.3996622 248.9,25.3621622 C248.9,28.0621622 247.933333,30.8121622 246,33.6121622 L246,33.6121622 L245.85,33.6121622 L245.9,33.6621622 C244.233333,35.7621622 241.966667,37.0788288 239.1,37.6121622 Z M259.4,35.5121622 C260.9,37.4788288 262.033333,38.6121622 262.8,38.9121622 C263.666667,39.4121622 264.366667,39.7288288 264.9,39.8621622 L264.9,39.8621622 L267.5,40.2121622 C271.166667,40.0788288 275.216667,38.4788288 279.65,35.4121622 L279.65,35.4121622 L281.1,34.4121622 C281.933333,33.8454955 282.3,33.1454955 282.2,32.3121622 C282,31.9454955 281.733333,31.7288288 281.4,31.6621622 C281.1,31.6954955 280.883333,31.7121622 280.75,31.7121622 C280.416667,31.8454955 279.55,32.4954955 278.15,33.6621622 C278.05,33.6954955 277.433333,34.0788288 276.3,34.8121622 C275.566667,35.2788288 274.916667,35.5454955 274.35,35.6121622 C275.016667,34.3454955 275.35,32.9954955 275.35,31.5621622 C275.35,30.2954955 274.991667,28.4538288 274.275,26.0371622 C273.558333,23.6204955 273.183333,21.7954955 273.15,20.5621622 C273.15,19.8954955 273.483333,19.3954955 274.15,19.0621622 L274.15,19.0621622 L276.05,18.1121622 C276.116667,17.9788288 276.15,17.8454955 276.15,17.7121622 C276.15,17.4121622 276.016667,17.0954955 275.75,16.7621622 C275.183333,16.3954955 274.8,16.2454955 274.6,16.3121622 C272.8,16.8788288 270.833333,18.0454955 268.7,19.8121622 C267.933333,20.4454955 266.2,21.9954955 263.5,24.4621622 L263.5,24.4621622 L259.9,28.6621622 C257.7,31.2288288 256.55,32.5621622 256.45,32.6621622 C256.55,33.2288288 256.65,33.5954955 256.75,33.7621622 C256.95,34.0288288 257.3,34.1621622 257.8,34.1621622 C258.1,34.1954955 258.333333,34.1121622 258.5,33.9121622 C259.133333,33.1121622 259.816667,32.3121622 260.55,31.5121622 C263.15,28.5454955 264.833333,26.6121622 265.6,25.7121622 C267.333333,23.7454955 269.066667,22.2954955 270.8,21.3621622 C270.866667,21.4954955 270.9,21.7121622 270.9,22.0121622 C270.933333,23.0454955 271.3,24.5704955 272,26.5871622 C272.7,28.6038288 273.05,30.1621622 273.05,31.2621622 C273.05,34.1288288 272.083333,36.0788288 270.15,37.1121622 C269.483333,37.4788288 268.483333,37.6621622 267.15,37.6621622 C265.55,37.6621622 264.166667,37.1621622 263,36.1621622 C261.7,34.6288288 260.9,33.8621622 260.6,33.8621622 C260.3,33.8621622 260.008333,33.9871622 259.725,34.2371622 C259.441667,34.4871622 259.3,34.7621622 259.3,35.0621622 C259.3,35.0954955 259.283333,35.0454955 259.25,34.9121622 L259.4,35.5121622 Z M334.001,35.3111622 L334.033333,35.2843844 C334.055556,35.2695696 334.077778,35.2621622 334.1,35.2621622 C332.4,36.8288288 331.283333,37.6454955 330.75,37.7121622 C329.816667,37.6121622 329.166667,37.3621622 328.8,36.9621622 C328.633333,36.5954955 328.55,36.1954955 328.55,35.7621622 C328.55,35.3954955 328.625,34.8621622 328.775,34.1621622 C328.925,33.4621622 329,32.9288288 329,32.5621622 C329.433333,30.1288288 330.15,27.7621622 331.15,25.4621622 C333.116667,20.9621622 334.116667,18.6954955 334.15,18.6621622 L334.15,18.6621622 L334.15,17.6621622 C333.916667,17.0288288 333.466667,16.7621622 332.8,16.8621622 C332.233333,16.9288288 331.9,17.1954955 331.8,17.6621622 C328.133333,27.2954955 324.766667,33.4288288 321.7,36.0621622 C320.166667,37.0288288 318.783333,37.5121622 317.55,37.5121622 C316.916667,37.5121622 316.366667,37.3954955 315.9,37.1621622 C314.3,36.0621622 313.5,34.6454955 313.5,32.9121622 C313.5,32.6788288 313.516667,32.4288288 313.55,32.1621622 C314.283333,29.6954955 315,27.6454955 315.7,26.0121622 L315.7,26.0121622 L318.2,20.1121622 C318.233333,19.9121622 318.391667,19.5704955 318.675,19.0871622 C318.958333,18.6038288 319.1,18.2621622 319.1,18.0621622 C319.1,17.8621622 319.033333,17.6621622 318.9,17.4621622 L318.9,17.4621622 L318.35,16.8621622 C318.083333,16.7621622 317.85,16.7121622 317.65,16.7121622 C317.316667,16.7121622 316.816667,17.1621622 316.15,18.0621622 L316.15,18.0621622 L315.15,19.4121622 C313.316667,21.9121622 312.2,23.3288288 311.8,23.6621622 L311.8,23.6621622 L302,32.3621622 C301.9,32.4621622 301.833333,32.5288288 301.8,32.5621622 C301.833333,32.5621622 301.883333,32.5288288 301.95,32.4621622 C301.883333,32.5621622 301.85,32.7288288 301.85,32.9621622 C301.85,33.6288288 302.083333,34.0454955 302.55,34.2121622 L302.55,34.2121622 L303.3,34.2121622 C309.6,28.7454955 312.766667,25.9954955 312.8,25.9621622 L312.8,25.9621622 L312.95,26.1621622 C312.95,26.6621622 312.75,27.3454955 312.35,28.2121622 C311.916667,29.1788288 311.666667,29.8454955 311.6,30.2121622 C311.366667,30.6121622 311.2,31.0788288 311.1,31.6121622 C311,31.8788288 310.916667,32.4121622 310.85,33.2121622 C310.916667,34.6788288 311.416667,36.0454955 312.35,37.3121622 C313.283333,38.5788288 314.433333,39.4788288 315.8,40.0121622 C316.333333,40.1454955 316.883333,40.2121622 317.45,40.2121622 C320.55,40.2121622 323.4,38.4621622 326,34.9621622 L326,34.9621622 L326.2,35.1621622 L326.55,38.0121622 C327.316667,39.4788288 328.683333,40.2121622 330.65,40.2121622 C332.15,39.6121622 333.516667,38.7621622 334.75,37.6621622 C337.216667,35.4621622 338.65,34.1288288 339.05,33.6621622 C339.15,33.3954955 339.2,33.1288288 339.2,32.8621622 C339.2,32.4954955 339.083333,32.1788288 338.85,31.9121622 C338.083333,31.9121622 337.633333,31.9288288 337.5,31.9621622 C336.266667,33.1288288 335.1,34.2454955 334,35.3121622 L334.001,35.3111622 Z M360.6,40.3621622 C362.166667,40.3621622 364.1,39.2621622 366.4,37.0621622 L366.4,37.0621622 L368.45,35.1121622 C369.383333,34.2121622 369.85,33.4454955 369.85,32.8121622 C369.65,32.2121622 369.3,31.9121622 368.8,31.9121622 C368.6,31.9121622 368.383333,31.9454955 368.15,32.0121622 C366.716667,33.4788288 365.7,34.5121622 365.1,35.1121622 L364.9,35.3121622 C363.3,36.9121622 362.05,37.7121622 361.15,37.7121622 C360.95,37.7121622 360.733333,37.6621622 360.5,37.5621622 C360.433333,37.2621622 360.4,36.9454955 360.4,36.6121622 C360.4,36.0454955 360.533333,35.2954955 360.8,34.3621622 C361.166667,33.1288288 361.366667,32.3954955 361.4,32.1621622 C361.566667,31.3288288 362.1,29.5454955 363,26.8121622 C363.7,24.6788288 364.05,23.0121622 364.05,21.8121622 C364.05,20.7121622 363.85,19.7121622 363.45,18.8121622 C363.283333,18.4454955 362.916667,18.0704955 362.35,17.6871622 C361.783333,17.3038288 361.283333,17.0621622 360.85,16.9621622 C359.283333,16.7621622 357.675,17.0121622 356.025,17.7121622 C354.375,18.4121622 353.033333,19.3788288 352,20.6121622 C351.866667,20.8121622 351.616667,21.0454955 351.25,21.3121622 L351.25,21.3121622 L351.25,21.1121622 C351.283333,20.8121622 351.475,20.3204955 351.825,19.6371622 C352.175,18.9538288 352.35,18.4621622 352.35,18.1621622 C352.35,17.7954955 352.216667,17.4454955 351.95,17.1121622 C351.716667,16.9121622 351.433333,16.8288288 351.1,16.8621622 C350.833333,16.9621622 350.55,17.0454955 350.25,17.1121622 C348.083333,20.1454955 345.183333,23.6621622 341.55,27.6621622 C338.883333,30.5954955 337.366667,32.2454955 337,32.6121622 L337,32.6121622 L337.05,33.4621622 C337.283333,34.1621622 337.783333,34.4621622 338.55,34.3621622 C339.383333,33.5954955 340.266667,32.6954955 341.2,31.6621622 C343.6,29.0288288 345.616667,26.7454955 347.25,24.8121622 L347.25,24.8121622 L347.3,24.8621622 C344.3,32.7621622 342.533333,37.3454955 342,38.6121622 L342,38.6121622 L342,39.6121622 C342.533333,40.0121622 342.9,40.2121622 343.1,40.2121622 C343.466667,40.2121622 343.8,39.9788288 344.1,39.5121622 C346.3,33.7121622 347.65,30.1454955 348.15,28.8121622 L348.15,28.8121622 L348.85,27.7121622 C350.683333,24.8121622 353.016667,22.2788288 355.85,20.1121622 C356.083333,19.9454955 356.575,19.7454955 357.325,19.5121622 C358.075,19.2788288 358.6,19.1621622 358.9,19.1621622 C359.8,19.1621622 360.416667,19.1954955 360.75,19.2621622 C361.45,19.7954955 361.8,20.6288288 361.8,21.7621622 C361.8,22.3288288 361.733333,22.8621622 361.6,23.3621622 C359.433333,31.3954955 358.233333,36.1954955 358,37.7621622 C358.133333,38.6288288 358.666667,39.4621622 359.6,40.2621622 C359.933333,40.3288288 360.266667,40.3621622 360.6,40.3621622 Z M400.4,40.2121622 C403.333333,40.2121622 405.916667,38.9954955 408.15,36.5621622 C408.583333,37.9954955 409.116667,38.9788288 409.75,39.5121622 C410.583333,39.9454955 411.533333,40.1621622 412.6,40.1621622 C413.466667,40.1621622 414.683333,39.4454955 416.25,38.0121622 C419.516667,35.0454955 421.133333,33.4288288 421.1,33.1621622 C421.133333,32.9954955 421.05,32.7954955 420.85,32.5621622 L420.85,32.5621622 L420.55,32.2121622 C420.216667,32.0788288 419.966667,32.0121622 419.8,32.0121622 C419.633333,32.0121622 419.3,32.2121622 418.8,32.6121622 C415.166667,36.2454955 413.033333,38.0621622 412.4,38.0621622 C412.1,38.0621622 411.816667,38.0288288 411.55,37.9621622 L411.55,37.9621622 L411.55,37.9121622 C411.216667,37.9121622 411,37.8454955 410.9,37.7121622 C410.533333,37.4788288 410.35,37.0454955 410.35,36.4121622 C410.35,35.9121622 410.366667,35.4954955 410.4,35.1621622 L410.4,35.1621622 L421.65,3.66216216 C421.65,3.36216216 421.791667,2.96216216 422.075,2.46216216 C422.358333,1.96216216 422.5,1.56216216 422.5,1.26216216 C422.5,1.0954955 422.466667,0.928828829 422.4,0.762162162 C422.3,0.295495495 421.95,0.0621621622 421.35,0.0621621622 C420.916667,0.0621621622 420.6,0.212162162 420.4,0.512162162 C417.166667,9.5454955 414.966667,15.7454955 413.8,19.1121622 L413.8,19.1121622 L413.75,19.0621622 C413.783333,19.3288288 413.675,19.6704955 413.425,20.0871622 C413.175,20.5038288 413.05,20.8288288 413.05,21.0621622 C412.75,21.2954955 412.483333,21.3621622 412.25,21.2621622 C410.85,18.9288288 409.216667,17.5954955 407.35,17.2621622 C406.75,17.0954955 406.15,17.0121622 405.55,17.0121622 C402.216667,17.0121622 399.133333,19.1288288 396.3,23.3621622 C396,23.8288288 395.8,24.2121622 395.7,24.5121622 C395.466667,24.7454955 394.966667,25.7121622 394.2,27.4121622 C394.1,27.6121622 393.883333,27.8788288 393.55,28.2121622 C393.55,28.3454955 393.366667,28.6121622 393,29.0121622 L393,29.0121622 L393.05,29.0621622 L390.3,31.9121622 C390.3,31.8788288 390.316667,31.8288288 390.35,31.7621622 C389.816667,32.2288288 389.45,32.7621622 389.25,33.3621622 C389.416667,33.5954955 389.566667,33.8454955 389.7,34.1121622 C389.833333,34.2454955 390.15,34.4121622 390.65,34.6121622 C391.416667,34.0121622 391.933333,33.5288288 392.2,33.1621622 C392.48,32.8621622 392.694,32.6401622 392.842,32.4961622 L392.907,32.4341622 L392.986,32.3441622 L392.986,32.3441622 L393.1,32.2121622 C393.333333,32.4454955 393.483333,32.9621622 393.55,33.7621622 C393.683333,34.9288288 393.766667,35.5288288 393.8,35.5621622 C394.6,37.5954955 396.033333,39.0454955 398.1,39.9121622 C398.866667,40.1121622 399.633333,40.2121622 400.4,40.2121622 Z M400.95,37.9121622 C400.15,37.9788288 399.5,37.9621622 399,37.8621622 L399,37.8621622 L399.1,37.8121622 C398.5,37.5121622 398.05,37.2788288 397.75,37.1121622 C396.25,36.4454955 395.533333,34.9788288 395.6,32.7121622 L395.6,32.7121622 L395.65,30.7121622 C396.416667,26.7121622 398.083333,23.6954955 400.65,21.6621622 C401.716667,20.0954955 403.216667,19.3288288 405.15,19.3621622 C406.183333,19.3954955 407.158333,19.7038288 408.075,20.2871622 C408.991667,20.8704955 409.633333,21.6454955 410,22.6121622 L410,22.6121622 L410.094898,22.746856 C410.27449,23.0284887 410.392857,23.3835907 410.45,23.8121622 C410.483333,24.0788288 410.483333,24.5454955 410.45,25.2121622 C410.416667,25.8788288 410.4,26.3288288 410.4,26.5621622 C410.066667,27.1288288 409.725,28.0288288 409.375,29.2621622 C409.025,30.4954955 408.7,31.3788288 408.4,31.9121622 L408.4,31.9121622 L408.05,32.3121622 L408.1,32.3621622 C407.766667,32.7621622 407.566667,33.0954955 407.5,33.3621622 L407.5,33.3621622 L407.1,33.9121622 L407.05,33.8621622 C406.283333,35.0288288 405.633333,35.6954955 405.1,35.8621622 C404.5,36.6288288 404.1,37.0454955 403.9,37.1121622 C402.8,37.7121622 401.816667,37.9788288 400.95,37.9121622 Z M430.2,40.1621622 C433.6,40.1621622 436.466667,38.6288288 438.8,35.5621622 C439.166667,34.9621622 439.55,34.3621622 439.95,33.7621622 L439.95,33.7621622 L440.269556,33.9490511 C441.65237,34.730977 443.010148,35.1498659 444.342889,35.2057177 L444.65,35.2121622 C445.516667,35.2121622 446.35,35.0454955 447.15,34.7121622 C447.516667,34.5454955 448.016667,34.2621622 448.65,33.8621622 C449.016667,33.6288288 449.2,33.4788288 449.2,33.4121622 C449.166667,33.3454955 449.1,33.3121622 449,33.3121622 C448.988889,33.3121622 448.977778,33.314014 448.966667,33.3177177 L448.956,33.3231622 C448.974314,33.1689969 448.947521,32.826625 448.87562,32.2960465 L448.85,32.1121622 C448.416667,31.8788288 448,31.6954955 447.6,31.5621622 C446.733333,32.3954955 445.716667,32.8121622 444.55,32.8121622 C443.416667,32.8121622 442.333333,32.3788288 441.3,31.5121622 C442.033333,29.7788288 442.4,27.9288288 442.4,25.9621622 C442.4,23.5621622 441.833333,21.2621622 440.7,19.0621622 C440.3,18.5288288 440.05,18.2454955 439.95,18.2121622 C439.316667,17.6454955 438.958333,17.3704955 438.875,17.3871622 C438.791667,17.4038288 438.5,17.3288288 438,17.1621622 C437.5,16.9954955 437.183333,16.9121622 437.05,16.9121622 C436.683333,16.9121622 436.125,17.0038288 435.375,17.1871622 C434.625,17.3704955 434.05,17.4621622 433.65,17.4621622 C433.416667,17.4621622 433.183333,17.4454955 432.95,17.4121622 C428.95,17.9454955 425.733333,20.7121622 423.3,25.7121622 C423,26.6454955 422,28.2454955 420.3,30.5121622 L420.3,30.5121622 L419.3,31.7621622 C419,32.1954955 418.733333,32.5288288 418.5,32.7621622 L418.5,32.7621622 L418.9,33.8121622 C419.5,34.1454955 419.933333,34.2788288 420.2,34.2121622 C421,33.3788288 421.533333,32.8121622 421.8,32.5121622 L421.8,32.5121622 L422.5,31.7621622 L422.65,32.6621622 L423.2,34.8621622 C423.466667,35.9621622 424.016667,36.8621622 424.85,37.5621622 C426.15,39.2954955 427.933333,40.1621622 430.2,40.1621622 Z M439.364,30.7251622 L439.212372,30.5721749 C436.670791,27.9559759 435.4,25.169305 435.4,22.2121622 C435.4,21.3788288 435.5,20.5621622 435.7,19.7621622 C435.666667,19.6288288 435.916667,19.3954955 436.45,19.0621622 C437.85,19.1621622 438.85,20.2454955 439.45,22.3121622 C439.85,24.4454955 440.05,25.9621622 440.05,26.8621622 C440.05,28.2954955 439.816667,29.5954955 439.35,30.7621622 L439.364,30.7251622 Z M430.6,37.8621622 C429.8,37.8621622 429.15,37.7621622 428.65,37.5621622 C425.883333,36.4288288 424.616667,33.7788288 424.85,29.6121622 C424.916667,28.6454955 425.116667,27.5454955 425.45,26.3121622 C426.683333,23.8121622 428.366667,21.7621622 430.5,20.1621622 C431.933333,19.5954955 432.966667,19.3121622 433.6,19.3121622 L433.6,19.3121622 L433.65,19.5621622 C433.416667,20.4621622 433.3,21.3954955 433.3,22.3621622 C433.3,24.2288288 433.741667,26.1038288 434.625,27.9871622 C435.508333,29.8704955 436.666667,31.4621622 438.1,32.7621622 C437.433333,33.6621622 436.75,34.5621622 436.05,35.4621622 C434.45,37.0621622 432.633333,37.8621622 430.6,37.8621622 Z M451.9,40.2121622 C452.233333,40.2121622 452.533333,40.0788288 452.8,39.8121622 C454.833333,34.4788288 456.35,30.4621622 457.35,27.7621622 C457.716667,27.2954955 457.983333,26.9454955 458.15,26.7121622 L458.15,26.7121622 L458.1,26.6621622 C458.433333,25.8954955 459.016667,25.0788288 459.85,24.2121622 L459.85,24.2121622 L461.95,22.0121622 C464.283333,20.2788288 465.933333,19.4121622 466.9,19.4121622 C467.2,19.4121622 467.483333,19.4454955 467.75,19.5121622 C468.783333,20.1454955 469.3,21.2121622 469.3,22.7121622 C469.3,23.3788288 469.183333,24.1954955 468.95,25.1621622 C466.35,32.6621622 464.783333,37.0954955 464.25,38.4621622 C463.95,39.2288288 464.133333,39.7454955 464.8,40.0121622 C465.466667,40.3121622 465.983333,40.1121622 466.35,39.4121622 C468.416667,33.5788288 469.983333,29.1954955 471.05,26.2621622 C471.416667,25.7288288 471.666667,25.3788288 471.8,25.2121622 L471.8,25.2121622 L474.85,21.3621622 C476.083333,19.7954955 477.4,19.0121622 478.8,19.0121622 C479.233333,19.0121622 479.7,19.0788288 480.2,19.2121622 C480.8,19.4788288 481.183333,19.8288288 481.35,20.2621622 C481.45,20.5288288 481.5,21.0621622 481.5,21.8621622 C481.5,23.4621622 481.25,25.1121622 480.75,26.8121622 L480.75,26.8121622 L478.2,35.4621622 C478.133333,35.8954955 478.083333,36.2954955 478.05,36.6621622 C478.116667,36.7954955 478.116667,36.8954955 478.05,36.9621622 C478.316667,37.9288288 478.5,38.4954955 478.6,38.6621622 C478.866667,39.2288288 479.266667,39.6288288 479.8,39.8621622 C480.066667,40.0621622 480.6,40.1621622 481.4,40.1621622 C482.5,40.1621622 483.783333,39.6954955 485.25,38.7621622 L485.25,38.7621622 L485.35,38.7121622 C486.416667,37.6788288 487.133333,36.9954955 487.5,36.6621622 C489,35.2288288 489.75,34.4288288 489.75,34.2621622 C489.716667,34.2954955 489.666667,34.3288288 489.6,34.3621622 C490.266667,33.7621622 490.6,33.2121622 490.6,32.7121622 C490.6,32.1121622 490.216667,31.8121622 489.45,31.8121622 C489.216667,31.8121622 489.016667,31.8288288 488.85,31.8621622 C488.883333,31.8954955 488.916667,31.9121622 488.95,31.9121622 C487.3,33.5321622 486.1495,34.6661622 485.4985,35.3141622 L485.3,35.5121622 C483.566667,37.1788288 482.133333,37.9288288 481,37.7621622 C480.666667,37.6288288 480.466667,37.3454955 480.4,36.9121622 C480.366667,36.1788288 480.333333,35.7954955 480.3,35.7621622 C480.466667,35.0621622 481.2,32.8288288 482.5,29.0621622 C483.433333,26.3954955 483.9,24.1288288 483.9,22.2621622 C483.9,21.0954955 483.75,19.9788288 483.45,18.9121622 C483.183333,18.2788288 482.733333,17.8121622 482.1,17.5121622 C480.733333,16.8454955 479.65,16.5121622 478.85,16.5121622 C476.683333,16.5121622 474.333333,18.0788288 471.8,21.2121622 L471.8,21.2121622 L471.55,21.2121622 C470.883333,19.4788288 470.316667,18.4121622 469.85,18.0121622 C469.016667,17.3121622 468.05,16.9621622 466.95,16.9621622 C466.25,16.9621622 465.516667,17.1121622 464.75,17.4121622 C464.283333,17.5454955 463.616667,17.9204955 462.75,18.5371622 C461.883333,19.1538288 461.2,19.5121622 460.7,19.6121622 C460.7,19.4454955 460.783333,19.1371622 460.95,18.6871622 C461.116667,18.2371622 461.2,17.9288288 461.2,17.7621622 C461.2,17.5954955 461.15,17.4288288 461.05,17.2621622 C460.683333,16.7621622 460.316667,16.5121622 459.95,16.5121622 C459.483333,16.5121622 459.1,16.7121622 458.8,17.1121622 L458.8,17.1121622 L446.7,32.5621622 C446.733333,32.5288288 446.733333,32.4954955 446.7,32.4621622 C446.666667,32.6288288 446.65,32.8121622 446.65,33.0121622 C446.65,33.3454955 446.75,33.6121622 446.95,33.8121622 C447.283333,34.0454955 447.6,34.1621622 447.9,34.1621622 L447.9,34.1621622 L448.5,34.1621622 L455.85,25.3121622 L455.85,25.4121622 C453.683333,31.2454955 451.983333,35.6788288 450.75,38.7121622 C450.583333,39.1121622 450.625,39.4621622 450.875,39.7621622 C451.125,40.0621622 451.466667,40.2121622 451.9,40.2121622 Z M499.75,40.1621622 C503.15,40.1621622 506.016667,38.6288288 508.35,35.5621622 C508.716667,34.9621622 509.1,34.3621622 509.5,33.7621622 L509.5,33.7621622 L509.819556,33.9490511 C511.20237,34.730977 512.560148,35.1498659 513.892889,35.2057177 L514.2,35.2121622 C515.066667,35.2121622 515.9,35.0454955 516.7,34.7121622 C517.066667,34.5454955 517.566667,34.2621622 518.2,33.8621622 C518.566667,33.6288288 518.75,33.4788288 518.75,33.4121622 C518.716667,33.3454955 518.65,33.3121622 518.55,33.3121622 C518.538889,33.3121622 518.527778,33.314014 518.516667,33.3177177 L518.506,33.3231622 C518.524314,33.1689969 518.497521,32.826625 518.42562,32.2960465 L518.4,32.1121622 C517.966667,31.8788288 517.55,31.6954955 517.15,31.5621622 C516.283333,32.3954955 515.266667,32.8121622 514.1,32.8121622 C512.966667,32.8121622 511.883333,32.3788288 510.85,31.5121622 C511.583333,29.7788288 511.95,27.9288288 511.95,25.9621622 C511.95,23.5621622 511.383333,21.2621622 510.25,19.0621622 C509.85,18.5288288 509.6,18.2454955 509.5,18.2121622 C508.866667,17.6454955 508.508333,17.3704955 508.425,17.3871622 C508.341667,17.4038288 508.05,17.3288288 507.55,17.1621622 C507.05,16.9954955 506.733333,16.9121622 506.6,16.9121622 C506.233333,16.9121622 505.675,17.0038288 504.925,17.1871622 C504.175,17.3704955 503.6,17.4621622 503.2,17.4621622 C502.966667,17.4621622 502.733333,17.4454955 502.5,17.4121622 C498.5,17.9454955 495.283333,20.7121622 492.85,25.7121622 C492.55,26.6454955 491.55,28.2454955 489.85,30.5121622 L489.85,30.5121622 L488.85,31.7621622 C488.55,32.1954955 488.283333,32.5288288 488.05,32.7621622 L488.05,32.7621622 L488.45,33.8121622 C489.05,34.1454955 489.483333,34.2788288 489.75,34.2121622 C490.55,33.3788288 491.083333,32.8121622 491.35,32.5121622 L491.35,32.5121622 L492.05,31.7621622 L492.2,32.6621622 L492.75,34.8621622 C493.016667,35.9621622 493.566667,36.8621622 494.4,37.5621622 C495.7,39.2954955 497.483333,40.1621622 499.75,40.1621622 Z M508.914,30.7251622 L508.762372,30.5721749 C506.220791,27.9559759 504.95,25.169305 504.95,22.2121622 C504.95,21.3788288 505.05,20.5621622 505.25,19.7621622 C505.216667,19.6288288 505.466667,19.3954955 506,19.0621622 C507.4,19.1621622 508.4,20.2454955 509,22.3121622 C509.4,24.4454955 509.6,25.9621622 509.6,26.8621622 C509.6,28.2954955 509.366667,29.5954955 508.9,30.7621622 L508.914,30.7251622 Z M500.15,37.8621622 C499.35,37.8621622 498.7,37.7621622 498.2,37.5621622 C495.433333,36.4288288 494.166667,33.7788288 494.4,29.6121622 C494.466667,28.6454955 494.666667,27.5454955 495,26.3121622 C496.233333,23.8121622 497.916667,21.7621622 500.05,20.1621622 C501.483333,19.5954955 502.516667,19.3121622 503.15,19.3121622 L503.15,19.3121622 L503.2,19.5621622 C502.966667,20.4621622 502.85,21.3954955 502.85,22.3621622 C502.85,24.2288288 503.291667,26.1038288 504.175,27.9871622 C505.058333,29.8704955 506.216667,31.4621622 507.65,32.7621622 C506.983333,33.6621622 506.3,34.5621622 505.6,35.4621622 C504,37.0621622 502.183333,37.8621622 500.15,37.8621622 Z M516.91875,57.0138983 L517.05,57.0121622 C517.616667,56.8121622 517.966667,56.5621622 518.1,56.2621622 C519.166667,52.7954955 520.416667,49.2788288 521.85,45.7121622 L521.85,45.7121622 L526.05,35.3621622 L526.45,34.8621622 C527.483333,36.3954955 528.066667,37.2788288 528.2,37.5121622 C529.233333,39.2121622 531.183333,40.0621622 534.05,40.0621622 C535.05,40.0621622 536.283333,39.9121622 537.75,39.6121622 L537.75,39.6121622 L539.95,39.1621622 C543.183333,38.4954955 546.35,36.6121622 549.45,33.5121622 C549.583333,33.2121622 549.65,32.9954955 549.65,32.8621622 C549.683333,32.6954955 549.683333,32.5621622 549.65,32.4621622 C549.65,32.3621622 549.583333,32.2621622 549.45,32.1621622 C549.25,31.8954955 548.95,31.7621622 548.55,31.7621622 C548.416667,31.7621622 548.266667,31.7788288 548.1,31.8121622 C547.666667,32.2454955 547.15,32.6788288 546.55,33.1121622 C545.783333,33.9121622 544.566667,34.7288288 542.9,35.5621622 C542.366667,35.8954955 541.833333,36.0788288 541.3,36.1121622 L541.3,36.1121622 L541.2,35.7621622 C543.7,32.1621622 544.95,28.6288288 544.95,25.1621622 C544.95,22.9621622 544.6,21.4288288 543.9,20.5621622 C543.6,19.1954955 542.833333,18.2454955 541.6,17.7121622 C540.533333,17.0788288 539.416667,16.7621622 538.25,16.7621622 C536.816667,16.7621622 535.133333,17.2454955 533.2,18.2121622 C533,18.0788288 532.9,17.8954955 532.9,17.6621622 C532.9,17.5954955 532.916667,17.4954955 532.95,17.3621622 L532.95,17.3621622 L532.95,17.0621622 C532.95,16.8288288 532.85,16.6454955 532.65,16.5121622 C532.416667,16.2454955 532.133333,16.1121622 531.8,16.1121622 C531.4,16.1121622 531.033333,16.2621622 530.7,16.5621622 C528.166667,20.0954955 526.466667,22.3954955 525.6,23.4621622 C525.3,23.8288288 523.416667,25.6621622 519.95,28.9621622 C519.216667,29.6621622 518.716667,30.1621622 518.45,30.4621622 C518.55,30.4288288 518.916667,30.1454955 519.55,29.6121622 C518.116667,30.8454955 517.133333,31.6954955 516.6,32.1621622 C516.433333,32.4621622 516.35,32.7454955 516.35,33.0121622 C516.35,33.3454955 516.5,33.6288288 516.8,33.8621622 C517.066667,33.9621622 517.316667,34.0121622 517.55,34.0121622 C517.816667,34.0121622 518.066667,33.9621622 518.3,33.8621622 C521.233333,31.2621622 522.866667,29.7621622 523.2,29.3621622 C525,27.6621622 526.266667,26.4621622 527,25.7621622 L527,25.7621622 L527.15,25.8621622 C521.383333,41.2288288 517.95,50.1454955 516.85,52.6121622 C516.45,53.5121622 516.183333,54.0788288 516.05,54.3121622 C515.75,55.0121622 515.65,55.6288288 515.75,56.1621622 C516.083333,56.7621622 516.516667,57.0454955 517.05,57.0121622 L516.91875,57.0138983 Z M534.4,37.4621622 C533.933333,37.5954955 533,37.4288288 531.6,36.9621622 C529.8,35.4621622 528.916667,33.8788288 528.95,32.2121622 C528.85,32.0121622 528.8,31.8121622 528.8,31.6121622 C528.8,31.4788288 528.841667,31.2454955 528.925,30.9121622 C529.008333,30.5788288 529.033333,30.3121622 529,30.1121622 C529.2,28.1454955 529.858333,26.1871622 530.975,24.2371622 C532.091667,22.2871622 533.45,20.8121622 535.05,19.8121622 C536.016667,19.4454955 536.95,19.2621622 537.85,19.2621622 C539.383333,19.2621622 540.566667,19.7788288 541.4,20.8121622 L541.4,20.8121622 L541.555325,21.1234048 C542.151775,22.3825764 542.45,23.8121622 542.45,25.4121622 C542.45,27.9454955 541.833333,30.2621622 540.6,32.3621622 C539.033333,35.0288288 536.966667,36.7288288 534.4,37.4621622 Z M550.55,40.1621622 C551.15,40.3288288 551.633333,40.1788288 552,39.7121622 C554.533333,33.1121622 556.366667,28.4121622 557.5,25.6121622 C558.166667,24.6121622 559.15,23.3788288 560.45,21.9121622 C563.116667,20.0454955 565.483333,19.1121622 567.55,19.1121622 C568.65,19.8788288 569.15,20.8621622 569.05,22.0621622 C568.883333,24.1621622 568.5,26.0288288 567.9,27.6621622 L567.9,27.6621622 L565.5,34.2121622 C565.4,34.8454955 565.35,35.4454955 565.35,36.0121622 C565.35,37.9788288 566,39.3288288 567.3,40.0621622 C567.7,40.1621622 568.1,40.2121622 568.5,40.2121622 C569.866667,40.2121622 571.383333,39.3621622 573.05,37.6621622 C573.65,37.0621622 574.85,35.6454955 576.65,33.4121622 C576.683333,33.3454955 576.7,33.0288288 576.7,32.4621622 C576.7,32.2954955 576.416667,32.0454955 575.85,31.7121622 C575.816667,31.6788288 575.683333,31.7038288 575.45,31.7871622 C575.216667,31.8704955 575.083333,31.9121622 575.05,31.9121622 C574.783333,31.9121622 573.5,33.2788288 571.2,36.0121622 C570.1,37.3121622 569.233333,37.9621622 568.6,37.9621622 C568.333333,37.9621622 568.083333,37.8454955 567.85,37.6121622 C567.616667,37.2121622 567.5,36.7454955 567.5,36.2121622 C567.5,35.5788288 567.616667,34.9288288 567.85,34.2621622 L567.85,34.2621622 L570.45,26.8121622 C571.05,25.0788288 571.35,23.5788288 571.35,22.3121622 C571.35,20.4121622 570.633333,18.7954955 569.2,17.4621622 C568.7,17.1288288 568.133333,16.9621622 567.5,16.9621622 C566.866667,16.9621622 565.783333,17.2454955 564.25,17.8121622 C564.083333,17.8121622 563.75,17.9454955 563.25,18.2121622 C562.75,18.4788288 562.4,18.5788288 562.2,18.5121622 C563.5,17.1454955 564.35,16.3454955 564.75,16.1121622 C568.216667,12.1454955 569.95,8.56216216 569.95,5.36216216 C569.95,4.1954955 569.75,3.02882883 569.35,1.86216216 C568.65,0.628828829 567.916667,0.0121621622 567.15,0.0121621622 C567.083333,0.0454954955 567,0.0788288288 566.9,0.112162162 C566.833333,0.145495495 566.766667,0.112162162 566.7,0.0121621622 C566.1,-0.0878378378 565.45,0.428828829 564.75,1.56216216 C563.483333,4.52882883 562.583333,6.6954955 562.05,8.06216216 L562.05,8.06216216 L556.65,21.9121622 C556.483333,22.3454955 555.1,24.0121622 552.5,26.9121622 C550.166667,29.5121622 548.55,31.1954955 547.65,31.9621622 C547.416667,32.1621622 547.266667,32.4288288 547.2,32.7621622 L547.2,32.7621622 L547.2,33.5621622 C547.466667,34.1288288 547.95,34.3621622 548.65,34.2621622 C550.783333,32.1621622 552.55,30.2788288 553.95,28.6121622 L553.885,28.6891622 L553.676367,29.2551309 C552.405794,32.6895059 551.224544,35.6645059 550.132617,38.1801309 L549.9,38.7121622 C549.9,39.5454955 550.116667,40.0288288 550.55,40.1621622 Z M561.45,16.3621622 C561.916667,14.7288288 562.716667,12.5454955 563.85,9.81216216 C565.15,6.67882883 566,4.47882883 566.4,3.21216216 L566.4,3.21216216 L566.7,2.96216216 C566.933333,3.12882883 567.1,3.42882883 567.2,3.86216216 C567.266667,4.06216216 567.35,4.42882883 567.45,4.96216216 C567.516667,5.52882883 567.5,6.1454955 567.4,6.81216216 C567.1,8.81216216 566.95,9.51216216 566.95,8.91216216 L566.95,8.86216216 C566.25,10.8621622 564.416667,13.3621622 561.45,16.3621622 Z M585.85,40.1621622 C589.25,40.1621622 592.116667,38.6288288 594.45,35.5621622 C594.816667,34.9621622 595.2,34.3621622 595.6,33.7621622 L595.6,33.7621622 L595.919556,33.9490511 C597.30237,34.730977 598.660148,35.1498659 599.992889,35.2057177 L600.3,35.2121622 C601.166667,35.2121622 602,35.0454955 602.8,34.7121622 C603.166667,34.5454955 603.666667,34.2621622 604.3,33.8621622 C604.666667,33.6288288 604.85,33.4788288 604.85,33.4121622 C604.816667,33.3454955 604.75,33.3121622 604.65,33.3121622 C604.638889,33.3121622 604.627778,33.314014 604.616667,33.3177177 L604.606,33.3231622 C604.624314,33.1689969 604.597521,32.826625 604.52562,32.2960465 L604.5,32.1121622 C604.066667,31.8788288 603.65,31.6954955 603.25,31.5621622 C602.383333,32.3954955 601.366667,32.8121622 600.2,32.8121622 C599.066667,32.8121622 597.983333,32.3788288 596.95,31.5121622 C597.683333,29.7788288 598.05,27.9288288 598.05,25.9621622 C598.05,23.5621622 597.483333,21.2621622 596.35,19.0621622 C595.95,18.5288288 595.7,18.2454955 595.6,18.2121622 C594.966667,17.6454955 594.608333,17.3704955 594.525,17.3871622 C594.441667,17.4038288 594.15,17.3288288 593.65,17.1621622 C593.15,16.9954955 592.833333,16.9121622 592.7,16.9121622 C592.333333,16.9121622 591.775,17.0038288 591.025,17.1871622 C590.275,17.3704955 589.7,17.4621622 589.3,17.4621622 C589.066667,17.4621622 588.833333,17.4454955 588.6,17.4121622 C584.6,17.9454955 581.383333,20.7121622 578.95,25.7121622 C578.65,26.6454955 577.65,28.2454955 575.95,30.5121622 L575.95,30.5121622 L574.95,31.7621622 C574.65,32.1954955 574.383333,32.5288288 574.15,32.7621622 L574.15,32.7621622 L574.55,33.8121622 C575.15,34.1454955 575.583333,34.2788288 575.85,34.2121622 C576.65,33.3788288 577.183333,32.8121622 577.45,32.5121622 L577.45,32.5121622 L578.15,31.7621622 L578.3,32.6621622 L578.85,34.8621622 C579.116667,35.9621622 579.666667,36.8621622 580.5,37.5621622 C581.8,39.2954955 583.583333,40.1621622 585.85,40.1621622 Z M595.014,30.7251622 L594.862372,30.5721749 C592.320791,27.9559759 591.05,25.169305 591.05,22.2121622 C591.05,21.3788288 591.15,20.5621622 591.35,19.7621622 C591.316667,19.6288288 591.566667,19.3954955 592.1,19.0621622 C593.5,19.1621622 594.5,20.2454955 595.1,22.3121622 C595.5,24.4454955 595.7,25.9621622 595.7,26.8621622 C595.7,28.2954955 595.466667,29.5954955 595,30.7621622 L595.014,30.7251622 Z M586.25,37.8621622 C585.45,37.8621622 584.8,37.7621622 584.3,37.5621622 C581.533333,36.4288288 580.266667,33.7788288 580.5,29.6121622 C580.566667,28.6454955 580.766667,27.5454955 581.1,26.3121622 C582.333333,23.8121622 584.016667,21.7621622 586.15,20.1621622 C587.583333,19.5954955 588.616667,19.3121622 589.25,19.3121622 L589.25,19.3121622 L589.3,19.5621622 C589.066667,20.4621622 588.95,21.3954955 588.95,22.3621622 C588.95,24.2288288 589.391667,26.1038288 590.275,27.9871622 C591.158333,29.8704955 592.316667,31.4621622 593.75,32.7621622 C593.083333,33.6621622 592.4,34.5621622 591.7,35.4621622 C590.1,37.0621622 588.283333,37.8621622 586.25,37.8621622 Z M625.9,40.3621622 C627.466667,40.3621622 629.4,39.2621622 631.7,37.0621622 L631.7,37.0621622 L633.75,35.1121622 C634.683333,34.2121622 635.15,33.4454955 635.15,32.8121622 C634.95,32.2121622 634.6,31.9121622 634.1,31.9121622 C633.9,31.9121622 633.683333,31.9454955 633.45,32.0121622 C632.016667,33.4788288 631,34.5121622 630.4,35.1121622 L630.2,35.3121622 C628.6,36.9121622 627.35,37.7121622 626.45,37.7121622 C626.25,37.7121622 626.033333,37.6621622 625.8,37.5621622 C625.733333,37.2621622 625.7,36.9454955 625.7,36.6121622 C625.7,36.0454955 625.833333,35.2954955 626.1,34.3621622 C626.466667,33.1288288 626.666667,32.3954955 626.7,32.1621622 C626.866667,31.3288288 627.4,29.5454955 628.3,26.8121622 C629,24.6788288 629.35,23.0121622 629.35,21.8121622 C629.35,20.7121622 629.15,19.7121622 628.75,18.8121622 C628.583333,18.4454955 628.216667,18.0704955 627.65,17.6871622 C627.083333,17.3038288 626.583333,17.0621622 626.15,16.9621622 C624.583333,16.7621622 622.975,17.0121622 621.325,17.7121622 C619.675,18.4121622 618.333333,19.3788288 617.3,20.6121622 C617.166667,20.8121622 616.916667,21.0454955 616.55,21.3121622 L616.55,21.3121622 L616.55,21.1121622 C616.583333,20.8121622 616.775,20.3204955 617.125,19.6371622 C617.475,18.9538288 617.65,18.4621622 617.65,18.1621622 C617.65,17.7954955 617.516667,17.4454955 617.25,17.1121622 C617.016667,16.9121622 616.733333,16.8288288 616.4,16.8621622 C616.133333,16.9621622 615.85,17.0454955 615.55,17.1121622 C613.383333,20.1454955 610.483333,23.6621622 606.85,27.6621622 C604.183333,30.5954955 602.666667,32.2454955 602.3,32.6121622 L602.3,32.6121622 L602.35,33.4621622 C602.583333,34.1621622 603.083333,34.4621622 603.85,34.3621622 C604.683333,33.5954955 605.566667,32.6954955 606.5,31.6621622 C608.9,29.0288288 610.916667,26.7454955 612.55,24.8121622 L612.55,24.8121622 L612.6,24.8621622 C609.6,32.7621622 607.833333,37.3454955 607.3,38.6121622 L607.3,38.6121622 L607.3,39.6121622 C607.833333,40.0121622 608.2,40.2121622 608.4,40.2121622 C608.766667,40.2121622 609.1,39.9788288 609.4,39.5121622 C611.6,33.7121622 612.95,30.1454955 613.45,28.8121622 L613.45,28.8121622 L614.15,27.7121622 C615.983333,24.8121622 618.316667,22.2788288 621.15,20.1121622 C621.383333,19.9454955 621.875,19.7454955 622.625,19.5121622 C623.375,19.2788288 623.9,19.1621622 624.2,19.1621622 C625.1,19.1621622 625.716667,19.1954955 626.05,19.2621622 C626.75,19.7954955 627.1,20.6288288 627.1,21.7621622 C627.1,22.3288288 627.033333,22.8621622 626.9,23.3621622 C624.733333,31.3954955 623.533333,36.1954955 623.3,37.7621622 C623.433333,38.6288288 623.966667,39.4621622 624.9,40.2621622 C625.233333,40.3288288 625.566667,40.3621622 625.9,40.3621622 Z M643.25,40.2121622 L645.25,40.1621622 C646.55,40.1288288 648.433333,39.2954955 650.9,37.6621622 C653,36.2621622 654.716667,34.7788288 656.05,33.2121622 C656.116667,32.8788288 655.966667,32.4788288 655.6,32.0121622 C655.333333,31.8454955 654.9,31.7621622 654.3,31.7621622 C654.1,31.9954955 653.583333,32.4288288 652.75,33.0621622 C651.216667,34.6288288 649.133333,36.0121622 646.5,37.2121622 C645.8,37.6788288 644.85,37.9121622 643.65,37.9121622 C642.55,37.9121622 641.15,37.5788288 639.45,36.9121622 C637.683333,35.4788288 636.75,34.4454955 636.65,33.8121622 C637.85,33.1121622 638.783333,32.6454955 639.45,32.4121622 L639.45,32.4121622 L645.4,29.1621622 C647.766667,27.8621622 649.616667,26.5121622 650.95,25.1121622 C652.016667,23.7121622 652.55,22.3121622 652.55,20.9121622 C652.55,18.3454955 650.616667,17.0621622 646.75,17.0621622 C643.516667,17.6288288 640.775,19.0704955 638.525,21.3871622 C636.275,23.7038288 634.8,26.5121622 634.1,29.8121622 C634.033333,30.2788288 633.983333,30.7454955 633.95,31.2121622 C633.916667,31.3121622 633.9,31.4288288 633.9,31.5621622 C633.9,31.6954955 633.916667,31.8454955 633.95,32.0121622 C633.383333,32.3121622 632.916667,32.5621622 632.55,32.7621622 C632.483333,33.2621622 632.55,33.7121622 632.75,34.1121622 C632.916667,34.3121622 633.166667,34.5288288 633.5,34.7621622 C633.833333,34.6954955 634.133333,34.5788288 634.4,34.4121622 C636.1,37.7454955 639.05,39.6621622 643.25,40.1621622 L643.25,40.1621622 L643.25,40.2121622 Z M636.45,31.0121622 L636.4,31.0121622 C636.333333,30.9454955 636.3,30.8788288 636.3,30.8121622 C636.3,30.7788288 636.316667,30.7454955 636.35,30.7121622 C636.716667,29.0788288 637.066667,27.8954955 637.4,27.1621622 C639.133333,23.1954955 642.333333,20.5788288 647,19.3121622 C648.833333,19.4121622 649.916667,19.8288288 650.25,20.5621622 C650.25,21.9621622 649.55,23.2788288 648.15,24.5121622 C647.283333,25.2788288 645.966667,26.1454955 644.2,27.1121622 C643.633333,27.4121622 643.25,27.6121622 643.05,27.7121622 L643.05,27.7121622 L640,29.4121622 C639.266667,29.8121622 638.083333,30.3454955 636.45,31.0121622 L636.45,31.0121622 Z M662.45,40.1121622 C662.683333,40.1788288 663.016667,40.1621622 663.45,40.0621622 C664.383333,39.6288288 664.85,38.9288288 664.85,37.9621622 C664.75,37.0621622 664.266667,36.4121622 663.4,36.0121622 C662.7,36.0121622 662.283333,36.0288288 662.15,36.0621622 C661.316667,36.4288288 660.833333,37.0454955 660.7,37.9121622 L660.7,37.9121622 L660.7,37.9621622 C660.7,38.6954955 660.95,39.2621622 661.45,39.6621622 C661.683333,39.9621622 662.016667,40.1121622 662.45,40.1121622 Z" id="Cen'estpasundomophone."></path>
        </g>
    </g>
</svg>